<?xml version="1.0" encoding="utf-8"?>
<!-- Generator: Adobe Illustrator 21.1.0, SVG Export Plug-In . SVG Version: 6.00 Build 0)  -->
<svg version="1.1" id="Layer_1" xmlns="http://www.w3.org/2000/svg" xmlns:xlink="http://www.w3.org/1999/xlink" x="0px" y="0px"
	 viewBox="0 0 186.2 251" style="enable-background:new 0 0 186.2 251;" xml:space="preserve">
<style type="text/css">
	.st0{fill:#C4C4C4;}
	.st1{fill:#AAAAAA;}
	.st2{fill:#FFFFFF;}
	.st3{fill:none;stroke:#AAAAAA;stroke-width:0.4883;stroke-miterlimit:10;}
</style>
<g>
	<g>
		<rect x="0.5" class="st0" width="181.9" height="181.9"/>
		<g>
			<path class="st1" d="M21,65.8l28.8,77h0.4l28.9-77h21.7v100.1H84v-34.1l1.7-43.4l-0.4-0.1l-29.7,77.5H44.3L14.8,88.6h-0.5
				l1.7,43.2v34.1H0.6V65.8H21z"/>
			<path class="st1" d="M140.3,165.9h-16.7V65.8h16.7V165.9z"/>
		</g>
		<g>
			<path class="st2" d="M22.1,64l28.8,77h0.4l28.9-77h21.7v100.1H85.1V130l1.7-43.4l-0.4-0.1l-29.7,77.5H45.4L15.9,86.8l-0.4,0.1
				l1.7,43.2v34.1H0.4V64H22.1z"/>
			<path class="st2" d="M141.5,164.1h-16.7V64h16.7V164.1z"/>
		</g>
	</g>
	<g>
		<path class="st0" d="M6.2,190.6l5.5,15.4l5.4-15.4h5.8v21.2h-4.4v-5.8l0.5-10l-5.7,15.8h-3l-5.7-15.8l0.5,10v5.8H0.5v-21.2H6.2
			L6.2,190.6z"/>
		<path class="st0" d="M31.1,211.8h-4.4v-21.2h4.4V211.8z"/>
		<path class="st0" d="M41.7,203.3l-2.3,2.5v6.1h-4.4v-21.2h4.4v9.6l1.9-2.6l5.4-7h5.4l-7.5,9.4l7.8,11.8h-5.2L41.7,203.3z"/>
		<path class="st0" d="M66.9,202.7h-8.4v5.7h9.8v3.5H54.1v-21.2h14.2v3.6h-9.7v5.1h8.4V202.7z"/>
		<path class="st0" d="M83,211.8h-4.4v-21.2H83V211.8z"/>
		<path class="st0" d="M94.7,206.5l4.8-16h4.8L97,211.8h-4.6l-7.4-21.2h4.8L94.7,206.5z"/>
		<path class="st0" d="M116.3,207.5h-7.7l-1.4,4.4h-4.7l7.9-21.2h4l7.9,21.2h-4.7L116.3,207.5z M109.8,203.9h5.3l-2.7-7.9
			L109.8,203.9z"/>
		<path class="st0" d="M141.6,211.8h-4.4l-8.5-14v13.9h-4.4v-21.2h4.4l8.5,14v-14h4.4L141.6,211.8L141.6,211.8z"/>
		<path class="st0" d="M162.8,201.7c0,2.1-0.4,4-1.1,5.5c-0.7,1.6-1.8,2.8-3.2,3.6s-2.9,1.3-4.7,1.3c-1.7,0-3.3-0.4-4.7-1.3
			s-2.5-2.1-3.2-3.6c-0.8-1.6-1.1-3.4-1.2-5.4v-1c0-2.1,0.4-4,1.1-5.5c0.8-1.6,1.8-2.8,3.2-3.6s2.9-1.3,4.7-1.3
			c1.7,0,3.3,0.4,4.7,1.3c1.3,0.9,2.5,2.1,3.2,3.6c0.8,1.6,1.1,3.4,1.1,5.5V201.7z M158.3,200.8c0-2.2-0.4-3.9-1.2-5.1
			s-1.9-1.7-3.4-1.7s-2.6,0.6-3.4,1.7c-0.8,1.1-1.2,2.8-1.2,5v1c0,2.1,0.4,3.9,1.2,5.1c0.8,1.2,2,1.8,3.4,1.8c1.5,0,2.6-0.6,3.4-1.7
			c0.8-1.2,1.2-2.8,1.2-5.1V200.8z"/>
		<path class="st0" d="M172.7,206.5l4.8-16h4.8l-7.4,21.2h-4.6l-7.4-21.2h4.8L172.7,206.5z"/>
	</g>
	<g>
		<path class="st0" d="M0.5,244.1v-16.1h4.7c1.7,0,2.9,0.3,3.9,1c0.9,0.7,1.4,1.7,1.4,3.2c0,0.8-0.2,1.5-0.7,2.1
			c-0.5,0.6-1.1,1-1.9,1.3c0.9,0.2,1.7,0.6,2.4,1.3c0.6,0.7,0.9,1.6,0.9,2.5c0,1.4-0.5,2.5-1.4,3.3S7.6,244,6,244L0.5,244.1
			L0.5,244.1z M1.8,235.3h3.7c1.2,0,2.1-0.2,2.7-0.8c0.6-0.5,0.9-1.3,0.9-2.2c0-1-0.3-1.7-1-2.3c-0.7-0.5-1.7-0.8-2.9-0.8H1.8V235.3
			z M1.8,236.4v6.6H6c1.2,0,2.1-0.3,2.8-0.9c0.7-0.6,1-1.4,1-2.5c0-0.9-0.3-1.7-0.9-2.4c-0.6-0.6-1.5-0.9-2.7-0.9L1.8,236.4
			L1.8,236.4z"/>
		<path class="st0" d="M23.1,236.4h-7.8v6.6h8.9v1.1H14.1v-16.1h10.1v1.1h-8.9v6h7.8C23.1,235.2,23.1,236.4,23.1,236.4z"/>
		<path class="st0" d="M36.4,229.2h-8.3v5.9h4c1.7,0,3,0.4,4,1.2s1.3,1.9,1.3,3.2c0,1.3-0.5,2.5-1.3,3.3c-0.9,0.8-2.2,1.3-4,1.3
			h-5.3v-16.1h9.7L36.4,229.2L36.4,229.2z M28.1,236.2v6.8h4c1.3,0,2.3-0.3,3-0.9c0.6-0.6,0.9-1.5,0.9-2.5c0-0.9-0.3-1.7-0.9-2.4
			c-0.6-0.6-1.7-0.9-3-0.9L28.1,236.2L28.1,236.2z"/>
		<path class="st0" d="M44.9,237.9h-5.3v-1.1h5.3V237.9z"/>
		<path class="st0" d="M49.1,237.5v6.6h-1.3v-16.1h5.5c1.7,0,3,0.4,3.9,1.3c0.9,0.9,1.3,2,1.3,3.4c0,1.4-0.5,2.5-1.3,3.4
			c-0.9,0.9-2.2,1.3-3.9,1.3L49.1,237.5L49.1,237.5z M49.1,236.4h4.2c1.3,0,2.3-0.3,3-1c0.6-0.6,1-1.5,1-2.5c0-1-0.3-1.9-1-2.5
			c-0.6-0.7-1.7-1-3-1h-4.2C49.1,229.2,49.1,236.4,49.1,236.4z"/>
		<path class="st0" d="M68.8,239.7h-7.4l-1.7,4.5h-1.3l6.1-16.1h1.3l6,16.1h-1.3L68.8,239.7z M62,238.5h6.5l-3.2-8.7h-0.1L62,238.5z
			"/>
		<path class="st0" d="M84.3,232.3c0,0.8-0.2,1.5-0.8,2.1c-0.5,0.6-1.2,1.1-2.1,1.4c1,0.3,1.8,0.8,2.4,1.4c0.6,0.6,0.8,1.5,0.8,2.5
			c0,1.4-0.6,2.5-1.6,3.4c-1.1,0.8-2.5,1.2-4.2,1.2c-1.5,0-2.8-0.4-4-1.2s-1.7-1.9-1.6-3.4v-0.1h1.3c0,1,0.4,1.9,1.2,2.5
			c0.8,0.7,1.8,1,3.1,1c1.4,0,2.5-0.3,3.3-0.9c0.8-0.6,1.2-1.4,1.2-2.5c0-1.1-0.4-2-1.1-2.5c-0.7-0.6-1.8-0.8-3.3-0.8h-1.9v-1.1h1.9
			c1.4,0,2.5-0.2,3.2-0.8s1-1.3,1-2.3c0-0.9-0.3-1.7-1-2.4c-0.7-0.6-1.7-0.9-3.2-0.9c-1.1,0-2.1,0.3-2.8,0.9
			c-0.8,0.6-1.2,1.4-1.2,2.4h-1.2v-0.1c-0.1-1.3,0.5-2.4,1.5-3.2c1-0.8,2.3-1.2,3.8-1.2c1.7,0,3.1,0.4,4,1.2
			C83.8,229.8,84.3,230.9,84.3,232.3z"/>
		<path class="st0" d="M88.8,237.5v6.6h-1.3v-16.1H93c1.7,0,3,0.4,3.9,1.3c0.9,0.9,1.3,2,1.3,3.4c0,1.4-0.5,2.5-1.3,3.4
			c-0.9,0.9-2.2,1.3-3.9,1.3L88.8,237.5L88.8,237.5z M88.8,236.4H93c1.3,0,2.3-0.3,3-1c0.6-0.6,1-1.5,1-2.5c0-1-0.3-1.9-1-2.5
			c-0.6-0.7-1.7-1-3-1h-4.2V236.4z"/>
		<path class="st0" d="M108.6,239.7h-7.4l-1.7,4.5h-1.3l6.1-16.1h1.3l6,16.1h-1.3L108.6,239.7z M101.7,238.5h6.5l-3.2-8.7h-0.1
			L101.7,238.5z"/>
		<path class="st0" d="M123.6,229.2h-8.3v5.9h4c1.7,0,3,0.4,4,1.2c0.9,0.8,1.3,1.9,1.3,3.2c0,1.3-0.5,2.5-1.3,3.3
			c-0.9,0.8-2.2,1.3-4,1.3H114v-16.1h9.7L123.6,229.2L123.6,229.2z M115.3,236.2v6.8h4c1.3,0,2.3-0.3,3-0.9c0.6-0.6,0.9-1.5,0.9-2.5
			c0-0.9-0.3-1.7-0.9-2.4c-0.6-0.6-1.7-0.9-3-0.9L115.3,236.2L115.3,236.2z"/>
		<path class="st0" d="M139.7,237.4c0,2.1-0.6,3.7-1.7,5.1c-1.1,1.3-2.7,1.9-4.6,1.9c-1.9,0-3.4-0.6-4.5-1.9
			c-1.1-1.3-1.7-2.9-1.7-5.1v-2.6c0-2.1,0.6-3.7,1.7-5.1c1.1-1.3,2.6-1.9,4.5-1.9c1.9,0,3.4,0.6,4.6,1.9c1.1,1.3,1.7,2.9,1.7,5.1
			V237.4z M138.3,234.8c0-1.7-0.5-3.2-1.3-4.2c-0.9-1-2.1-1.6-3.6-1.6c-1.5,0-2.7,0.6-3.6,1.6c-0.9,1-1.3,2.5-1.3,4.2v2.6
			c0,1.7,0.4,3.2,1.3,4.2c0.9,1,2.1,1.6,3.6,1.6c1.6,0,2.8-0.6,3.6-1.6s1.3-2.5,1.3-4.2V234.8z"/>
		<path class="st0" d="M153.1,229.2h-5.5v15h-1.3v-15h-5.5v-1.1H153L153.1,229.2L153.1,229.2z"/>
		<path class="st0" d="M159.1,236.6h-2.2v7.5h-1.3v-16.1h1.3v7.4h2.2l6.3-7.4h1.5v0.1l-6.6,7.8l7.1,8.1v0.1h-1.6L159.1,236.6z"/>
		<path class="st0" d="M179.4,239.7H172l-1.7,4.5H169l6.1-16.1h1.3l6,16.1h-1.3L179.4,239.7z M172.5,238.5h6.5l-3.2-8.7h-0.1
			L172.5,238.5z"/>
	</g>
	<line class="st3" x1="0.5" y1="220.1" x2="182.4" y2="220.1"/>
</g>
</svg>
