<?xml version="1.0" encoding="utf-8"?>
<!-- Generator: Adobe Illustrator 21.1.0, SVG Export Plug-In . SVG Version: 6.00 Build 0)  -->
<svg version="1.1" id="Layer_1" xmlns="http://www.w3.org/2000/svg" xmlns:xlink="http://www.w3.org/1999/xlink" x="0px" y="0px"
	 viewBox="0 0 230 310" style="enable-background:new 0 0 230 310;" xml:space="preserve">
<style type="text/css">
	.st0{fill:#C4C4C4;}
	.st1{fill:#AAAAAA;}
	.st2{fill:#FFFFFF;}
	.st3{fill:none;stroke:#AAAAAA;stroke-width:0.6171;stroke-miterlimit:10;}
</style>
<g>
	<g>
		<rect x="0.5" class="st0" width="229.9" height="229.9"/>
		<g>
			<path class="st1" d="M26.4,83.2l36.4,97.3h0.5l36.5-97.3h27.4v126.5h-21.1v-43.1l2.1-54.8l-0.5-0.1l-37.5,98H55.9L18.6,112
				L18,112l2.1,54.6v43.1H0.7V83.2H26.4z"/>
			<path class="st1" d="M177.2,209.7h-21.1V83.2h21.1V209.7z"/>
		</g>
		<g>
			<path class="st2" d="M27.8,80.9l36.4,97.3h0.5l36.5-97.3h27.4v126.5h-21.1v-43.1l2.1-54.8l-0.5-0.1l-37.5,98H57.3L20,109.7
				l-0.5,0.1l2.1,54.6v43.1H0.4V80.9H27.8z"/>
			<path class="st2" d="M178.7,207.4h-21.1V80.9h21.1V207.4z"/>
		</g>
	</g>
	<g>
		<path class="st0" d="M7.7,240.9l6.9,19.4l6.8-19.4h7.3v26.8h-5.5v-7.3l0.6-12.6l-7.2,20h-3.8l-7.2-20l0.6,12.6v7.3H0.5v-26.8H7.7z
			"/>
		<path class="st0" d="M39.2,267.7h-5.5v-26.8h5.5V267.7z"/>
		<path class="st0" d="M52.6,256.9l-2.9,3.1v7.7h-5.5v-26.8h5.5V253l2.4-3.3l6.8-8.8h6.8l-9.5,11.9l9.8,14.9h-6.6L52.6,256.9z"/>
		<path class="st0" d="M84.4,256.1H73.8v7.2h12.4v4.4h-18v-26.8h17.9v4.5H73.8v6.4h10.6V256.1z"/>
		<path class="st0" d="M104.8,267.7h-5.5v-26.8h5.5V267.7z"/>
		<path class="st0" d="M119.6,261l6.1-20.2h6.1l-9.3,26.8h-5.8l-9.3-26.8h6.1L119.6,261z"/>
		<path class="st0" d="M146.9,262.2h-9.7l-1.8,5.5h-5.9l10-26.8h5.1l10,26.8h-5.9L146.9,262.2z M138.7,257.7h6.7l-3.4-10
			L138.7,257.7z"/>
		<path class="st0" d="M178.9,267.7h-5.5L162.6,250v17.6h-5.5v-26.8h5.5l10.8,17.7v-17.7h5.5V267.7z"/>
		<path class="st0" d="M205.6,254.9c0,2.6-0.5,5-1.4,6.9c-0.9,2-2.3,3.5-4,4.6c-1.7,1.1-3.7,1.6-6,1.6c-2.2,0-4.2-0.5-5.9-1.6
			c-1.7-1.1-3.1-2.6-4-4.6c-1-2-1.4-4.3-1.5-6.8v-1.3c0-2.6,0.5-5,1.4-7c1-2,2.3-3.5,4-4.6c1.7-1.1,3.7-1.6,6-1.6
			c2.2,0,4.2,0.5,6,1.6c1.7,1.1,3.1,2.6,4,4.6c1,2,1.4,4.3,1.4,6.9V254.9z M200,253.7c0-2.8-0.5-4.9-1.5-6.4c-1-1.5-2.4-2.2-4.3-2.2
			c-1.9,0-3.3,0.7-4.3,2.2c-1,1.4-1.5,3.6-1.5,6.3v1.3c0,2.7,0.5,4.9,1.5,6.4c1,1.5,2.5,2.3,4.3,2.3c1.9,0,3.3-0.7,4.3-2.2
			c1-1.5,1.5-3.6,1.5-6.4V253.7z"/>
		<path class="st0" d="M218.2,261l6.1-20.2h6.1l-9.3,26.8h-5.8l-9.3-26.8h6.1L218.2,261z"/>
	</g>
	<g>
		<path class="st0" d="M0.5,308.5v-20.3h5.9c2.1,0,3.7,0.4,4.9,1.3c1.2,0.9,1.8,2.2,1.8,4c0,1-0.3,1.9-0.9,2.7
			c-0.6,0.8-1.4,1.3-2.4,1.6c1.2,0.2,2.2,0.8,3,1.7c0.8,0.9,1.2,2,1.2,3.2c0,1.8-0.6,3.2-1.8,4.2c-1.2,1-2.7,1.5-4.7,1.5H0.5z
			 M2.2,297.3h4.7c1.5,0,2.6-0.3,3.4-1c0.8-0.6,1.2-1.6,1.2-2.8c0-1.3-0.4-2.2-1.3-2.9c-0.9-0.6-2.1-1-3.7-1H2.2V297.3z M2.2,298.8
			v8.3h5.3c1.5,0,2.7-0.4,3.5-1.1c0.9-0.7,1.3-1.8,1.3-3.1c0-1.2-0.4-2.2-1.2-3c-0.8-0.8-1.9-1.2-3.4-1.2H2.2z"/>
		<path class="st0" d="M29.1,298.7h-9.8v8.4h11.2v1.4H17.7v-20.3h12.8v1.4H19.3v7.6h9.8V298.7z"/>
		<path class="st0" d="M45.9,289.7H35.4v7.4h5.1c2.1,0,3.8,0.5,5,1.5c1.2,1,1.7,2.4,1.7,4.1c0,1.7-0.6,3.1-1.7,4.2
			c-1.2,1-2.8,1.6-5,1.6h-6.7v-20.3h12.2V289.7z M35.4,298.5v8.6h5.1c1.7,0,2.9-0.4,3.8-1.2c0.8-0.8,1.2-1.9,1.2-3.1
			c0-1.2-0.4-2.2-1.2-3s-2.1-1.2-3.8-1.2H35.4z"/>
		<path class="st0" d="M56.6,300.6h-6.7v-1.4h6.7V300.6z"/>
		<path class="st0" d="M61.9,300.1v8.4h-1.7v-20.3h7c2.1,0,3.8,0.5,4.9,1.6c1.2,1.1,1.7,2.5,1.7,4.3c0,1.8-0.6,3.2-1.7,4.3
			c-1.2,1.1-2.8,1.6-4.9,1.6H61.9z M61.9,298.7h5.3c1.7,0,2.9-0.4,3.8-1.3c0.8-0.8,1.3-1.9,1.3-3.2c0-1.3-0.4-2.4-1.3-3.2
			c-0.8-0.9-2.1-1.3-3.8-1.3h-5.3V298.7z"/>
		<path class="st0" d="M86.9,302.9h-9.3l-2.1,5.7h-1.7l7.7-20.3h1.6l7.6,20.3H89L86.9,302.9z M78.2,301.4h8.2l-4-11h-0.1L78.2,301.4
			z"/>
		<path class="st0" d="M106.4,293.6c0,1-0.3,1.9-1,2.7c-0.6,0.8-1.5,1.4-2.7,1.8c1.3,0.4,2.3,1,3,1.8c0.7,0.8,1,1.9,1,3.1
			c0,1.8-0.7,3.2-2,4.3c-1.4,1-3.1,1.5-5.3,1.5c-1.9,0-3.6-0.5-5-1.5c-1.4-1-2.1-2.4-2-4.3l0-0.1H94c0,1.3,0.5,2.4,1.5,3.2
			c1,0.9,2.3,1.3,3.9,1.3c1.8,0,3.2-0.4,4.2-1.2c1-0.8,1.5-1.8,1.5-3.2c0-1.4-0.5-2.5-1.4-3.2c-0.9-0.7-2.3-1-4.2-1h-2.4v-1.4h2.4
			c1.8,0,3.1-0.3,4-1c0.9-0.7,1.3-1.7,1.3-2.9c0-1.2-0.4-2.2-1.3-3c-0.9-0.8-2.2-1.1-4-1.1c-1.4,0-2.7,0.4-3.6,1.2
			c-1,0.8-1.5,1.8-1.5,3h-1.5l0-0.1c-0.1-1.6,0.6-3,1.9-4c1.3-1,2.9-1.5,4.8-1.5c2.2,0,3.9,0.5,5.1,1.5
			C105.8,290.4,106.4,291.8,106.4,293.6z"/>
		<path class="st0" d="M112.1,300.1v8.4h-1.7v-20.3h7c2.1,0,3.8,0.5,4.9,1.6c1.2,1.1,1.7,2.5,1.7,4.3c0,1.8-0.6,3.2-1.7,4.3
			c-1.2,1.1-2.8,1.6-4.9,1.6H112.1z M112.1,298.7h5.3c1.7,0,2.9-0.4,3.8-1.3c0.8-0.8,1.3-1.9,1.3-3.2c0-1.3-0.4-2.4-1.3-3.2
			c-0.8-0.9-2.1-1.3-3.8-1.3h-5.3V298.7z"/>
		<path class="st0" d="M137.1,302.9h-9.3l-2.1,5.7H124l7.7-20.3h1.6l7.6,20.3h-1.7L137.1,302.9z M128.4,301.4h8.2l-4-11h-0.1
			L128.4,301.4z"/>
		<path class="st0" d="M156.1,289.7h-10.5v7.4h5.1c2.1,0,3.8,0.5,5,1.5c1.2,1,1.7,2.4,1.7,4.1c0,1.7-0.6,3.1-1.7,4.2
			c-1.2,1-2.8,1.6-5,1.6h-6.7v-20.3h12.2V289.7z M145.6,298.5v8.6h5.1c1.7,0,2.9-0.4,3.8-1.2c0.8-0.8,1.2-1.9,1.2-3.1
			c0-1.2-0.4-2.2-1.2-3c-0.8-0.8-2.1-1.2-3.8-1.2H145.6z"/>
		<path class="st0" d="M176.4,300c0,2.6-0.7,4.7-2.2,6.4c-1.4,1.6-3.4,2.4-5.8,2.4c-2.4,0-4.3-0.8-5.7-2.4c-1.4-1.6-2.1-3.7-2.1-6.4
			v-3.3c0-2.6,0.7-4.7,2.1-6.4c1.4-1.6,3.3-2.4,5.7-2.4c2.4,0,4.3,0.8,5.8,2.4c1.4,1.6,2.2,3.7,2.2,6.4V300z M174.7,296.7
			c0-2.2-0.6-4-1.7-5.3c-1.1-1.3-2.6-2-4.6-2c-1.9,0-3.4,0.7-4.5,2c-1.1,1.3-1.6,3.1-1.6,5.3v3.3c0,2.2,0.5,4,1.6,5.3
			c1.1,1.3,2.6,2,4.5,2c2,0,3.5-0.7,4.6-2c1.1-1.3,1.7-3.1,1.7-5.3V296.7z"/>
		<path class="st0" d="M193.4,289.7h-7v18.9h-1.7v-18.9h-7v-1.4h15.6V289.7z"/>
		<path class="st0" d="M201,299h-2.8v9.5h-1.7v-20.3h1.7v9.3h2.8l8-9.3h1.9l0,0.1l-8.4,9.9l9,10.2l0,0.1h-2L201,299z"/>
		<path class="st0" d="M226.6,302.9h-9.3l-2.1,5.7h-1.7l7.7-20.3h1.6l7.6,20.3h-1.7L226.6,302.9z M217.9,301.4h8.2l-4-11h-0.1
			L217.9,301.4z"/>
	</g>
	<line class="st3" x1="0.5" y1="278.1" x2="230.4" y2="278.1"/>
</g>
</svg>
