<?xml version="1.0" encoding="utf-8"?>
<!-- Generator: Adobe Illustrator 22.0.0, SVG Export Plug-In . SVG Version: 6.00 Build 0)  -->
<svg version="1.0" id="Layer_1" xmlns="http://www.w3.org/2000/svg" xmlns:xlink="http://www.w3.org/1999/xlink" x="0px" y="0px"
	 viewBox="0 0 350 80" style="enable-background:new 0 0 350 80;" xml:space="preserve">
<style type="text/css">
	.st0{fill:#29ABE2;}
</style>
<g>
	<path class="st0" d="M62.8,67.8H52.2V43.1H23.1v24.7H12.5V11.7h10.6v23h29.2v-23h10.6V67.8z"/>
	<path class="st0" d="M109.4,29.3c4.9,4.6,5.4,12.6,5.4,17.1c0,9-2.3,14.3-5.4,17.3c-4.6,4.2-12.3,4.6-17.1,4.6
		c-5,0-12.5-0.3-17.1-4.6c-5-4.6-5.4-12.7-5.4-17c0-4.8,0.6-12.8,5.4-17.4c4.6-4.3,12.1-4.5,17.1-4.5S104.8,25,109.4,29.3z
		 M82.1,57.5c2.7,3.1,6.8,3.5,10.2,3.5c3.5,0,7.3-0.4,10.1-3.5c2.8-3.1,2.8-7.2,2.8-10.9c0-3.1,0.2-7.9-2.7-11.2
		c-2.7-3-6.8-3.4-10.2-3.4c-3,0-7.6,0.3-10.3,3.4s-2.6,8.5-2.6,11.2C79.4,50.2,79.5,54.5,82.1,57.5z"/>
	<path class="st0" d="M120.1,32c0-1.5,0.2-3.4,1.9-5c1.8-1.5,3.8-1.7,5.7-1.7H147c2.9,0,7,0.1,9.6,3c2.1,2.4,2.2,5.8,2.2,7.8
		c0,2.2-0.2,5.1-1.9,7c-1.1,1.3-3,2.2-5,2.5v0.2c2.5,0.3,4.3,1.6,5.3,2.8c1.7,2.1,1.8,4.8,1.8,7s-0.2,6.6-2.9,9.4
		c-2.6,2.6-6.1,2.6-8.6,2.6h-20.2c-1.8,0-4.2-0.2-5.6-1.5c-1.4-1.3-1.6-3.4-1.6-4.7V32z M144,42.2c1.2,0,2.8-0.2,3.9-1.3
		c1-1,1.2-2.4,1.2-3.5c0-1.3-0.1-2.8-1.3-3.8c-1-1-2.4-1-3.7-1h-12.3c-0.6,0-1.2,0-1.8,0.5c-0.6,0.5-0.6,1.1-0.6,1.6v7.6H144z
		 M129.5,58c0,0.6,0.2,1.4,0.5,1.9c0.6,0.6,1.3,0.6,2,0.6h11.7c1.4,0,3.2-0.2,4.3-1.3c1.2-1.2,1.3-3.1,1.3-4.5c0-1.3-0.1-2.9-1.1-4
		c-1.2-1.3-3-1.4-4-1.4h-14.7V58z"/>
	<path class="st0" d="M202.9,29.3c4.9,4.6,5.4,12.6,5.4,17.1c0,9-2.3,14.3-5.4,17.3c-4.6,4.2-12.3,4.6-17.1,4.6
		c-5,0-12.5-0.3-17.1-4.6c-5-4.6-5.4-12.7-5.4-17c0-4.8,0.6-12.8,5.4-17.4c4.6-4.3,12.1-4.5,17.1-4.5
		C190.8,24.9,198.2,25,202.9,29.3z M175.6,57.5c2.7,3.1,6.8,3.5,10.2,3.5c3.5,0,7.3-0.4,10.1-3.5c2.8-3.1,2.8-7.2,2.8-10.9
		c0-3.1,0.2-7.9-2.7-11.2c-2.7-3-6.8-3.4-10.2-3.4c-3,0-7.6,0.3-10.3,3.4c-2.6,3-2.6,8.5-2.6,11.2C172.8,50.2,172.9,54.5,175.6,57.5
		z"/>
	<path class="st0" d="M229,67.8c-3.2,0-8.8-0.6-12.7-5.2c-3.5-4.2-3.8-9.5-3.8-15.5c0-5,0.1-12.3,4.8-17.2c1.8-1.8,5.4-4.6,13-4.6
		h18.2v7.2h-15.1c-6.3,0-9.4,3.1-10.4,6.7c-0.6,2.2-0.7,6.7-0.7,8c0,2.5,0.2,6.6,1.4,8.8c2.1,4.1,6.7,4.5,10.7,4.5h15.2v7.2H229z"/>
	<path class="st0" d="M267.4,67.8V32.6h-15.9v-7.2h41.2v7.2h-15.9v35.2H267.4z"/>
	<path class="st0" d="M328.1,67.8l0.3-30.2c0-0.6,0.2-1.1-0.5-1.1c-0.2,0-0.5,0.2-1.1,1.1l-18.7,27.3c-1.5,2.2-2.9,3.4-6.1,3.4
		c-5.5,0-6.2-3.8-6.2-6V25.3h9.4l-0.4,30.2c0,0.7,0,1.1,0.6,1.1c0.5,0,0.8-0.6,1.1-1.1l18.9-27.8c1.7-2.4,3.8-2.9,5.8-2.9
		c1.3,0,6.2,0.2,6.2,6.5v36.4H328.1z"/>
</g>
<text transform="matrix(1 0 0 1 52.474 -135.1575)" style="font-family:'MagistralC'; font-size:67.1172px;">Новости</text>
</svg>
