<svg xmlns="http://www.w3.org/2000/svg" xmlns:xlink="http://www.w3.org/1999/xlink"><symbol id="icon-editor-contrast" viewBox="0 0 31.9 31.9">
<path d="M16,4c6.6,0,12,5.4,12,12s-5.4,12-12,12S4,22.6,4,16S9.4,4,16,4 M16,0C7.1,0,0,7.1,0,16c0,8.8,7.1,16,16,16s16-7.1,16-16 C31.9,7.1,24.8,0,16,0L16,0z"/>
<path d="M16,24.3c4.7,0,8.5-3.8,8.5-8.5c0-4.7-3.8-8.5-8.5-8.5"/>
</symbol><symbol id="icon-editor-crop" viewBox="0 0 48 48">
  <path fill="none" d="M0,0h48v48H0V0z"/>
  <path d="M34,30h4V14c0-2.21-1.79-4-4-4H18v4h16V30z M14,34V2h-4v8H2v4h8v20c0,2.21,1.79,4,4,4h20v8h4v-8h8v-4H14z"/>
</symbol><symbol id="icon-editor-diagram-fill" viewBox="22.5 69.048 253 253">
  <path fill="#231F20" d="M149,69.048c-69.864,0-126.5,56.636-126.5,126.5c0,69.864,56.636,126.5,126.5,126.5 s126.5-56.636,126.5-126.5C275.5,125.685,218.864,69.048,149,69.048z M149,306.264c-60.844,0-110.167-49.323-110.167-110.167 C38.833,135.253,88.156,85.93,149,85.93c60.843,0,110.167,49.323,110.167,110.167C259.167,256.941,209.843,306.264,149,306.264z"/>
</symbol><symbol id="icon-editor-fill" viewBox="0 0 48 48">
  <path fill="none" d="M0,0h48v48H0V0z"/>
  <path d="M33.12,17.88L15.24,0l-2.83,2.83l4.76,4.76L6.88,17.88c-1.17,1.17-1.17,3.07,0,4.24l11,11C18.46,33.71,19.23,34,20,34 s1.54-0.29,2.12-0.88l11-11C34.29,20.95,34.29,19.05,33.12,17.88z M10.41,20L20,10.42L29.59,20H10.41z M38,23c0,0-4,4.33-4,7 c0,2.21,1.79,4,4,4s4-1.79,4-4C42,27.33,38,23,38,23z"/>
  <rect y="40" width="48" height="3"/>
</symbol><symbol id="icon-facebook" viewBox="0 0 8.7 18.9">
<style type="text/css">
.st0{fill:#D22856;}
</style>
<path class="st0" d="M6.3,3.4c0.8,0,1.6,0,2.4,0c0-1.1,0-2.2,0-3.4c-1,0-1.9,0-2.9,0C2.7,0.2,1.5,2.4,1.9,6.1H0v3.5h2
c0,3.1,0,6.2,0,9.3c1.3,0,2.6,0,3.8,0c0-3.1,0-6.2,0-9.3h2.9V6.1H5.8C5.8,5.1,5.8,3.7,6.3,3.4z"/>
</symbol><symbol id="icon-heart" viewBox="0 0 12.5 12">
<style type="text/css">
.st0{fill:#D22856;}
</style>
<g>
<path class="st0" d="M6.2,12c-0.2,0-0.4-0.1-0.6-0.2C1.9,7.4,1,6.4,0.8,6.2h0C0.3,5.5,0,4.7,0,3.8C0,1.7,1.7,0,3.8,0
c0.9,0,1.8,0.3,2.5,0.9C7,0.3,7.8,0,8.7,0c2.1,0,3.8,1.7,3.8,3.8c0,0.9-0.3,1.8-0.9,2.4l-4.9,5.6C6.6,11.9,6.4,12,6.2,12L6.2,12z
M2,5.3c0.2,0.3,2.5,2.8,4.2,4.9l4.3-4.9c0.3-0.4,0.5-0.9,0.5-1.4c0-1.3-1-2.3-2.3-2.3C8,1.5,7.3,1.8,6.8,2.4
C6.7,2.6,6.5,2.7,6.3,2.7C6,2.7,5.8,2.6,5.7,2.4C5.2,1.8,4.6,1.5,3.8,1.5c-1.3,0-2.3,1-2.3,2.3C1.5,4.5,1.7,5,2,5.3
C2,5.3,2,5.3,2,5.3z"/>
</g>
</symbol><symbol id="icon-mail" viewBox="0 0 18 14">
<style type="text/css">
.st0{fill:#D22856;}
</style>
<g>
<g>
<g>
<path class="st0" d="M14.9,1.8c1.2-1,0.9-1.8-0.7-1.8H3.7C2.2,0,1.9,0.8,3.1,1.8l3.7,3.1c1.2,1,3.2,1,4.4,0L14.9,1.8z"/>
</g>
<g>
<path class="st0" d="M11.9,7c-1.2,1-2.2,1.8-2.2,1.8c0,0,0,0,0,0C9.6,8.9,9.5,9,9.4,9c0,0-0.1,0-0.1,0C9.2,9.1,9.1,9.1,9,9.1
c0,0,0,0,0,0c0,0,0,0,0,0s0,0,0,0c0,0,0,0,0,0c-0.1,0-0.2,0-0.3-0.1c0,0-0.1,0-0.1,0C8.5,9,8.4,8.9,8.3,8.9c0,0,0,0,0,0
c0,0-1-0.8-2.2-1.8L2.2,3.8C1,2.8,0,3.3,0,4.8v6.3C0,12.7,1.3,14,2.8,14h12.3c1.6,0,2.8-1.3,2.8-2.8V4.8c0-1.6-1-2-2.2-1L11.9,7z
"/>
</g>
</g>
</g>
</symbol><symbol id="icon-map-marker" viewBox="0 0 35.983 35.983">
  <circle fill="#FFFFFF" cx="17.991" cy="17.991" r="17.991"/>
  <circle fill="#D22856" cx="17.991" cy="17.991" r="7.866"/>
</symbol><symbol id="icon-menu-burger" viewBox="0 0 49.945 24.007">
  <g id="miu">
    <g id="editor_list_view_hambuger_menu_glyph">
      <g>
        <path id="path-1" fill="#FFFFFF" d="M1.137,0C0.51,0,0,0.428,0,1.01v1.981c0,0.558,0.494,1.01,1.139,1.01h47.671 c0.628,0,1.138-0.428,1.138-1.01V1.01c0-0.558-0.494-1.01-1.138-1.01H1.137z M1.137,10.003C0.51,10.003,0,10.431,0,11.013v1.98 c0,0.557,0.494,1.01,1.139,1.01h47.671c0.628,0,1.138-0.428,1.138-1.01v-1.98c0-0.558-0.494-1.01-1.138-1.01H1.137z M1.137,20.005C0.51,20.005,0,20.434,0,21.016v1.981c0,0.557,0.494,1.01,1.139,1.01h47.671c0.628,0,1.138-0.428,1.138-1.01 v-1.981c0-0.558-0.494-1.011-1.138-1.011H1.137z"/>
      </g>
      <g>
        <path id="path-1_1_" fill="#FFFFFF" d="M1.137,0C0.51,0,0,0.428,0,1.01v1.981c0,0.558,0.494,1.01,1.139,1.01h47.671 c0.628,0,1.138-0.428,1.138-1.01V1.01c0-0.558-0.494-1.01-1.138-1.01H1.137z M1.137,10.003C0.51,10.003,0,10.431,0,11.013v1.98 c0,0.557,0.494,1.01,1.139,1.01h47.671c0.628,0,1.138-0.428,1.138-1.01v-1.98c0-0.558-0.494-1.01-1.138-1.01H1.137z M1.137,20.005C0.51,20.005,0,20.434,0,21.016v1.981c0,0.557,0.494,1.01,1.139,1.01h47.671c0.628,0,1.138-0.428,1.138-1.01 v-1.981c0-0.558-0.494-1.011-1.138-1.011H1.137z"/>
      </g>
    </g>
  </g>
</symbol><symbol id="icon-menu-cross" viewBox="0 0 23.867 23.867">
  <path fill="#FFFFFF" d="M15.087,11.933l8.56-8.559c0.293-0.293,0.293-0.768,0-1.061L21.554,0.22C21.414,0.079,21.223,0,21.023,0 c-0.199,0-0.391,0.079-0.529,0.22l-8.561,8.56l-8.56-8.56c-0.282-0.282-0.78-0.282-1.061,0L0.22,2.313 c-0.293,0.293-0.293,0.768,0,1.061l8.56,8.559l-8.56,8.559c-0.293,0.293-0.293,0.768,0,1.062l2.093,2.094 c0.141,0.142,0.331,0.22,0.53,0.22c0.199,0,0.39-0.078,0.53-0.22l8.561-8.56l8.56,8.56c0.141,0.142,0.332,0.22,0.53,0.22 c0.199,0,0.39-0.078,0.53-0.22l2.093-2.094c0.293-0.294,0.293-0.769,0-1.062L15.087,11.933z"/>
</symbol><symbol id="icon-no" viewBox="0 0 26.8 26.8">
<style type="text/css">
.st0{fill:#D22856;}
</style>
<path class="st0" d="M15.5,13.4L26.3,2.6c0.6-0.6,0.6-1.5,0-2.1s-1.5-0.6-2.1,0L13.4,11.3L2.6,0.4C2-0.1,1-0.1,0.4,0.4
C-0.1,1-0.1,2,0.4,2.6l10.8,10.8L0.4,24.2c-0.6,0.6-0.6,1.5,0,2.1c0.3,0.3,0.7,0.4,1.1,0.4s0.8-0.1,1.1-0.4l10.8-10.8l10.8,10.8
c0.3,0.3,0.7,0.4,1.1,0.4s0.8-0.1,1.1-0.4c0.6-0.6,0.6-1.5,0-2.1L15.5,13.4z"/>
</symbol><symbol id="icon-phone" viewBox="0 0 19.7 19.7">
<style type="text/css">
.st0{fill:#D22856;}
</style>
<path class="st0" d="M9.8,0c-3.5,0-7,0.6-8.3,1.9c-1.1,1-1.4,2.9-1.5,4c0,0,0,0.1,0,0.2c0,0.5,0.4,0.8,0.8,0.8c0.1,0,2-0.2,3.2-0.3
c0,0,0.1,0,0.1,0c0.4,0,0.8-0.4,0.8-0.8l0-1.6c0-0.5,0.4-0.9,0.9-0.9h8c0.5,0,0.9,0.4,0.9,0.9l0,1.6c0,0.4,0.4,0.8,0.8,0.8
c0,0,0.1,0,0.1,0c1.2,0.1,3.2,0.3,3.2,0.3c0.5,0,0.8-0.4,0.8-0.8c0-0.1,0-0.2,0-0.2c-0.1-1.2-0.5-3-1.5-4C16.9,0.6,13.4,0,9.8,0z
M9.8,10.7c-0.9,0-1.6,0.7-1.6,1.6c0,0.9,0.7,1.6,1.6,1.6c0.9,0,1.6-0.7,1.6-1.6C11.5,11.4,10.8,10.7,9.8,10.7z M8.6,7V6
c0-0.6-0.5-1-1-1c-0.6,0-1,0.5-1,1v1L1,12.9c-0.4,0.4-0.6,0.9-0.6,1.5V16c0,0.9,0.7,1.6,1.6,1.6h0.4v1c0,0.6,0.5,1,1,1
c0.6,0,1-0.5,1-1v-1h10.7v1c0,0.6,0.5,1,1,1c0.6,0,1-0.5,1-1v-1h0.4c0.9,0,1.6-0.7,1.6-1.6v-1.6c0-0.6-0.2-1.1-0.6-1.5L13.1,7V6
c0-0.6-0.5-1-1-1c-0.6,0-1,0.5-1,1v1C11.1,7,8.6,7,8.6,7z M9.8,9c1.8,0,3.3,1.5,3.3,3.3s-1.5,3.3-3.3,3.3c-1.8,0-3.3-1.5-3.3-3.3
S8,9,9.8,9z"/></symbol><symbol id="icon-quotes" viewBox="0 0 78.672 63.789">
  <g>
    <path d="M34.967,7.063L30.713,0C28.272,1.495,0,12.207,0,39.617c0,7.231,0.336,24.172,18.9,24.172 c11.187,0,13.94-10.279,13.94-13.584c0-21.977-21.382-14.177-21.382-14.177C11.458,17.957,31.263,9.184,34.967,7.063z"/>
  </g>
  <g>
    <path d="M78.672,7.063L74.418,0c-2.44,1.495-30.713,12.207-30.713,39.617c0,7.231,0.337,24.172,18.9,24.172 c11.187,0,13.939-10.279,13.939-13.584c0-21.977-21.381-14.177-21.381-14.177C55.165,17.957,74.969,9.184,78.672,7.063z"/>
  </g>
</symbol><symbol id="icon-review-arrow-left" viewBox="0 0 21.706 41.719">
  <path d="M2.045,20.859L21.458,1.446c0.331-0.331,0.331-0.867,0-1.198c-0.33-0.331-0.867-0.331-1.197,0L0.248,20.261 c-0.331,0.33-0.331,0.867,0,1.197l20.013,20.013c0.164,0.165,0.382,0.248,0.599,0.248s0.434-0.083,0.599-0.248 c0.331-0.331,0.331-0.867,0-1.198L2.045,20.859z"/>
</symbol><symbol id="icon-review-arrow-right" viewBox="0 0 21.706 41.719">
  <path d="M19.661,20.859L0.248,1.446c-0.331-0.331-0.331-0.867,0-1.198c0.33-0.331,0.867-0.331,1.197,0l20.013,20.012 c0.33,0.33,0.33,0.867,0,1.197L1.445,41.471c-0.164,0.165-0.382,0.248-0.599,0.248s-0.434-0.083-0.599-0.248 c-0.331-0.331-0.331-0.867,0-1.198L19.661,20.859z"/>
</symbol><symbol id="icon-timer" viewBox="0 0 298 345.097">
  <path d="M264.568,102.055l5.355-5.355c7.717-7.717,9.124-18.938,3.126-24.935c-5.997-5.997-17.217-4.59-24.934,3.127l-5.386,5.385 C221.768,63.292,196.11,51.875,168,48.297v-9.583h7.658c10.914,0,19.843-8.711,19.843-19.357S186.573,0,175.659,0h-53.317  c-10.913,0-19.842,8.711-19.842,19.357s8.929,19.357,19.842,19.357H130v9.583C56.681,57.629,0,120.244,0,196.097  c0,82.291,66.709,149,149,149c82.29,0,149-66.709,149-149C298,160.434,285.465,127.703,264.568,102.055z M149,306.264 c-60.844,0-110.167-49.323-110.167-110.167S88.156,85.93,149,85.93c60.843,0,110.167,49.323,110.167,110.167  S209.843,306.264,149,306.264z"/>
</symbol><symbol id="icon-twitter" viewBox="0 0 17.5 14.7">
<style type="text/css">
.st0{fill:#D22856;}
</style>
<g id="W6EeEF_1_">
<g>
<path class="st0" d="M11.3,0.2C13-0.3,14.4,0.4,15,1.3c0.7-0.2,1.4-0.5,2.1-0.7c0,0.8-0.5,1.5-0.9,1.7c0.7,0.2,1.3-0.5,1.3-0.5
c-0.2,1-1,1.7-1.6,2c-0.2,6.6-3.3,11-10.4,10.8c-0.5,0,0.1,0-0.5,0c-0.4,0-4.3-0.4-5-1.8c2.3,0.2,4-0.4,4.8-1.1
c-1-0.3-2.8-0.5-3.1-2.9C2.1,8.9,2.3,9,3,8.9C1.8,8.1,0.4,7.4,0.5,5.2c0.3,0.3,1.1,0.5,1.4,0.5c-0.7-0.2-2-3.3-0.9-4.8
c1.9,1.8,3.8,3.5,7.4,3.7C8.5,2.3,9.5,0.8,11.3,0.2z"/>
</g>
</g>
</symbol><symbol id="icon-yes" viewBox="0 0 21.7 16.1">
<style type="text/css">
.st0{fill:#34C834;}
</style>
<path class="st0" d="M21.4,0.3c-0.4-0.4-1-0.4-1.4,0L6.6,13.7L1.7,8.8c-0.4-0.4-1-0.4-1.4,0s-0.4,1,0,1.4l5.6,5.6
c0.2,0.2,0.5,0.3,0.7,0.3s0.5-0.1,0.7-0.3l14.1-14C21.8,1.3,21.8,0.7,21.4,0.3z"/>
</symbol><symbol id="icon-youtube" viewBox="0 0 14.6 14">
<style type="text/css">
.st0{fill:#D22856;}
</style>
<path class="st0" d="M1.8,13.8c-1,0.5-1.8,0-1.8-1.1V1.3c0-1.1,0.8-1.6,1.8-1.1l12.1,5.9c1,0.5,1,1.3,0,1.7L1.8,13.8z"/></symbol></svg>