<?xml version="1.0" encoding="UTF-8"?>
<svg fill="none" viewBox="0 0 24 13" xmlns="http://www.w3.org/2000/svg">
<path d="m12 12.667c-0.3894 7e-4 -0.7668-0.1349-1.0667-0.3834l-10-8.3333c-0.34036-0.28289-0.5544-0.68941-0.59504-1.1301-0.040633-0.44072 0.095471-0.87952 0.37837-1.2199 0.2829-0.34036 0.68941-0.5544 1.1301-0.59503 0.44071-0.040636 0.87951 0.09547 1.2199 0.37836l8.9333 7.4667 8.9333-7.2c0.1705-0.13844 0.3667-0.24183 0.5772-0.30421 0.2106-0.06239 0.4314-0.08255 0.6498-0.05931 0.2184 0.02323 0.43 0.08939 0.6227 0.19468 0.1928 0.10529 0.3628 0.24763 0.5003 0.41884 0.1527 0.17137 0.2683 0.37242 0.3396 0.59054s0.0968 0.44862 0.0749 0.67706-0.0908 0.44989-0.2022 0.65049c-0.1115 0.20059-0.2632 0.376-0.4456 0.51525l-10 8.05c-0.3085 0.2092-0.6782 0.309-1.05 0.2834z" fill="#8977AA"/>
</svg>
