<svg width="22" height="22" viewBox="0 0 22 22" fill="none" xmlns="http://www.w3.org/2000/svg">
<path d="M6.13445 19.0777L1.72453 20.2305L2.90132 15.9556L2.95689 15.7537L2.85201 15.5725C2.02857 14.1496 1.59548 12.5361 1.59607 10.894V10.8938C1.59607 5.73314 5.81696 1.53052 10.9978 1.53052C13.5168 1.53052 15.8741 2.50704 17.6495 4.27558C19.4244 6.04359 20.3997 8.3954 20.3997 10.8987C20.3997 16.0592 16.1788 20.2619 10.9979 20.2619H10.993C9.41885 20.2619 7.87254 19.8664 6.4992 19.1219L6.32555 19.0278L6.13445 19.0777Z" fill="url(#paint0_linear)" stroke="black"/>
<path d="M0.65332 21.291L2.10927 15.9993C1.21406 14.451 0.736852 12.692 0.741836 10.8938C0.741836 5.25904 5.34594 0.677734 11.0028 0.677734C13.7474 0.677734 16.3249 1.74092 18.2581 3.67145C20.1961 5.60197 21.2635 8.16946 21.2586 10.8987C21.2586 16.5334 16.6545 21.1147 10.9977 21.1147H10.9929C9.2795 21.114 7.59354 20.6862 6.0887 19.8701L0.65332 21.2911V21.291ZM6.34445 18.018L6.65434 18.2042C7.96282 18.9784 9.46303 19.3851 10.9929 19.39H10.9978C15.6953 19.39 19.5223 15.5829 19.5223 10.8987C19.5223 8.63009 18.6369 6.49866 17.0284 4.89155C15.4199 3.28443 13.2752 2.40247 10.9978 2.40247C6.29529 2.40247 2.46841 6.20958 2.46841 10.8938C2.46841 12.496 2.91597 14.059 3.77191 15.4113L3.9736 15.7347L3.11277 18.8657L6.34445 18.018Z" fill="white"/>
<path d="M8.43502 6.61607C8.24312 6.18977 8.04143 6.17992 7.8595 6.17505C7.71194 6.17017 7.53981 6.17017 7.36759 6.17017C7.19546 6.17017 6.91994 6.23385 6.68387 6.48861C6.44771 6.74345 5.78857 7.36082 5.78857 8.62013C5.78857 9.87438 6.70845 11.0895 6.83632 11.261C6.9642 11.4325 8.61205 14.0931 11.2142 15.1171C13.3785 15.9698 13.8212 15.7982 14.2885 15.7541C14.7607 15.71 15.8036 15.1368 16.0199 14.539C16.2314 13.9412 16.2314 13.4316 16.1675 13.3238C16.1036 13.216 15.9314 13.1524 15.6756 13.0249C15.4198 12.8975 14.1606 12.2802 13.9245 12.192C13.6884 12.1038 13.5162 12.0646 13.349 12.3194C13.1768 12.5741 12.685 13.1474 12.5373 13.319C12.3898 13.4904 12.2373 13.51 11.9815 13.3827C11.7257 13.2553 10.8994 12.9857 9.92054 12.1136C9.1581 11.4374 8.64161 10.5995 8.49397 10.3448C8.34642 10.09 8.47928 9.95271 8.60715 9.82542C8.72025 9.71268 8.8629 9.52649 8.99086 9.37951C9.11874 9.23253 9.163 9.12476 9.24661 8.95321C9.33023 8.78175 9.29087 8.63477 9.22693 8.50739C9.163 8.37993 8.66129 7.1207 8.43502 6.61607Z" fill="white"/>
<defs>
<linearGradient id="paint0_linear" x1="10.9557" y1="20.9321" x2="10.9557" y2="1.02932" gradientUnits="userSpaceOnUse">
<stop stop-color="#20B038"/>
<stop offset="1" stop-color="#60D66A"/>
</linearGradient>
</defs>
</svg>
