<svg width="26" height="26" viewBox="0 0 26 26" fill="none" xmlns="http://www.w3.org/2000/svg">
<path d="M7.2728 22.6342L1.90861 24.0365L3.34118 18.8324L3.39676 18.6305L3.29187 18.4492C2.31071 16.7538 1.79465 14.8312 1.79535 12.8745V12.8743C1.79535 6.72482 6.82475 1.71774 12.9974 1.71774C15.9985 1.71774 18.8074 2.88135 20.9227 4.9884C23.0374 7.09496 24.1996 9.89755 24.1996 12.8801C24.1996 19.0295 19.1702 24.0366 12.9975 24.0366H12.9917C11.1162 24.0366 9.27382 23.5654 7.63755 22.6784L7.4639 22.5842L7.2728 22.6342Z" stroke="black"/>
<path d="M0.772217 25.162L2.49289 18.9082C1.43491 17.0784 0.870936 14.9995 0.876826 12.8744C0.876826 6.21511 6.31804 0.800842 13.0034 0.800842C16.2471 0.800842 19.2932 2.05734 21.5779 4.33887C23.8682 6.62039 25.1298 9.6547 25.124 12.8801C25.124 19.5394 19.6828 24.9536 12.9974 24.9536H12.9917C10.9668 24.9528 8.97429 24.4472 7.19584 23.4828L0.772217 25.1621V25.162ZM7.49809 21.2939L7.86433 21.5139C9.41072 22.4289 11.1837 22.9095 12.9917 22.9153H12.9975C18.5491 22.9153 23.0719 18.416 23.0719 12.8801C23.0719 10.1991 22.0255 7.68012 20.1245 5.7808C18.2236 3.88149 15.689 2.83916 12.9975 2.83916C7.44 2.83916 2.91732 7.33848 2.91732 12.8744C2.91732 14.7679 3.44626 16.6151 4.45782 18.2133L4.69619 18.5955L3.67883 22.2957L7.49809 21.2939Z" fill="#A690CE"/>
<path d="M9.9688 7.81913C9.74201 7.31531 9.50365 7.30368 9.28864 7.29791C9.11426 7.29214 8.91083 7.29214 8.7073 7.29214C8.50387 7.29214 8.17826 7.36741 7.89926 7.66849C7.62017 7.96966 6.84119 8.69928 6.84119 10.1876C6.84119 11.6699 7.92831 13.1059 8.07944 13.3086C8.23056 13.5113 10.178 16.6556 13.2532 17.8659C15.8111 18.8735 16.3343 18.6707 16.8865 18.6186C17.4446 18.5665 18.6771 17.889 18.9328 17.1826C19.1828 16.4761 19.1828 15.8739 19.1072 15.7465C19.0316 15.619 18.8282 15.5439 18.5259 15.3932C18.2236 15.2427 16.7354 14.5131 16.4564 14.4089C16.1773 14.3047 15.9739 14.2583 15.7762 14.5594C15.5727 14.8605 14.9915 15.538 14.817 15.7407C14.6426 15.9434 14.4624 15.9665 14.1601 15.816C13.8578 15.6655 12.8812 15.3469 11.7244 14.3162C10.8234 13.5171 10.213 12.5268 10.0385 12.2258C9.86409 11.9247 10.0211 11.7624 10.1722 11.612C10.3059 11.4788 10.4745 11.2587 10.6257 11.085C10.7768 10.9113 10.8291 10.7839 10.928 10.5812C11.0268 10.3786 10.9803 10.2049 10.9047 10.0543C10.8291 9.90368 10.2362 8.41551 9.9688 7.81913Z" fill="#A690CE"/>
</svg>
