<svg width="22" height="22" viewBox="0 0 22 22" fill="none" xmlns="http://www.w3.org/2000/svg">
<g clip-path="url(#clip0)">
<path d="M21.9328 6.46418C21.8793 5.29328 21.6933 4.49367 21.4214 3.79405C21.1453 3.06006 20.7123 2.39521 20.1527 1.84568C19.6033 1.2861 18.9383 0.852886 18.2043 0.576597C17.5046 0.304854 16.7051 0.119066 15.5342 0.0658275C14.3611 0.0121166 13.9863 -0.000640869 10.9988 -0.000640869C8.01134 -0.000640869 7.63669 0.0121157 6.46347 0.0654923C5.29257 0.119036 4.49314 0.305009 3.79335 0.576906C3.05936 0.853015 2.3945 1.28606 1.84498 1.84564C1.2854 2.395 0.852184 3.05986 0.575895 3.79385C0.304152 4.49359 0.118364 5.29324 0.0651256 6.46397C0.0114146 7.63723 -0.00134277 8.01183 -0.00134277 10.9993C-0.00134277 13.9868 0.0114138 14.3616 0.0651256 15.5347C0.118501 16.7054 0.304474 17.505 0.576368 18.2048C0.852476 18.9386 1.28552 19.6036 1.84511 20.153C2.39446 20.7126 3.05949 21.1457 3.79348 21.4217C4.49305 21.6938 5.2927 21.8796 6.4636 21.9331C7.63686 21.9867 8.01147 21.9993 10.999 21.9993C13.9863 21.9993 14.3611 21.9867 15.5343 21.9331C16.7052 21.8796 17.5046 21.6938 18.2044 21.4217C19.682 20.8504 20.85 19.6824 21.4214 18.2048C21.6934 17.505 21.8792 16.7054 21.9328 15.5347C21.9862 14.3614 21.9989 13.9868 21.9989 10.9993C21.9989 8.01183 21.9862 7.63719 21.9328 6.46397L21.9328 6.46418ZM19.9527 15.4446C19.9039 16.5172 19.7246 17.0996 19.5741 17.4872C19.204 18.4466 18.4458 19.2048 17.4864 19.5748C17.0988 19.7254 16.5164 19.9047 15.4439 19.9535C14.2842 20.0065 13.9363 20.0176 10.9988 20.0176C8.06129 20.0176 7.7135 20.0065 6.55364 19.9535C5.48127 19.9047 4.89883 19.7254 4.51112 19.5748C4.03344 19.3984 3.60122 19.1173 3.24638 18.7519C2.88098 18.3971 2.59983 17.9651 2.42344 17.4872C2.27289 17.0996 2.09362 16.5172 2.04478 15.4446C1.99191 14.2848 1.98066 13.9369 1.98066 10.9995C1.98066 8.06223 1.99191 7.71444 2.04478 6.55441C2.09379 5.48187 2.27289 4.89943 2.42344 4.51189C2.59985 4.03403 2.88115 3.60181 3.24638 3.24698C3.60121 2.88157 4.0334 2.60043 4.5113 2.42421C4.89885 2.27348 5.48127 2.09439 6.55381 2.04538C7.71363 1.99251 8.06159 1.98126 10.9989 1.98126H10.9988C13.9359 1.98126 14.2839 1.99251 15.4439 2.04555C16.5164 2.09439 17.0987 2.27365 17.4864 2.42421C17.9641 2.60062 18.3963 2.88174 18.7511 3.24698C19.1165 3.6018 19.3977 4.03399 19.5739 4.51189C19.7246 4.89945 19.9039 5.48187 19.9527 6.55441C20.0056 7.71422 20.0169 8.06218 20.0169 10.9995C20.0169 13.9368 20.0058 14.2846 19.9527 15.4446Z" fill="#A690CE"/>
<path d="M11 5.35132C7.88037 5.35132 5.35132 7.88042 5.35132 11C5.35132 14.1196 7.88024 16.6487 11 16.6487C14.1197 16.6487 16.6487 14.1197 16.6487 11C16.6487 7.88024 14.1197 5.35132 11 5.35132ZM11 14.6665C8.97509 14.6663 7.33338 13.0248 7.33355 10.9997C7.33355 8.97483 8.97509 7.33312 11.0002 7.33312C13.0252 7.33329 14.6668 8.97483 14.6668 10.9997C14.6668 13.0248 13.0251 14.6665 11 14.6665Z" fill="#A690CE"/>
<path d="M18.1917 5.12833C18.1917 5.85729 17.6007 6.44828 16.8718 6.44828C16.1426 6.44828 15.5516 5.85729 15.5516 5.12833C15.5516 4.39919 16.1426 3.8082 16.8718 3.8082C17.6007 3.8082 18.1917 4.39919 18.1917 5.12833Z" fill="#A690CE"/>
</g>
<defs>
<clipPath id="clip0">
<rect width="22" height="22" fill="white"/>
</clipPath>
</defs>
</svg>
