<svg width="100" height="13" viewBox="0 0 100 13" fill="none" xmlns="http://www.w3.org/2000/svg">
<g clip-path="url(#clip0)">
<path d="M7.58022 0.196869V1.37006H3.39101V4.90705H6.91059V6.08025H3.39101V10.7141H8.29003V11.8873H0V0.196869H7.58022Z" fill="white"/>
<path d="M12.3935 0.196869V10.7141H17.1988V11.8873H9.00252V0.196869H12.3935Z" fill="white"/>
<path d="M27.0638 0.196869V1.2589L21.4456 10.7141H26.6446V11.8873H17.6943V10.7141L23.2442 1.37006H18.4912V0.196869H27.0638Z" fill="white"/>
<path d="M33.5137 0.196869L36.7681 11.8873H33.3597L32.6659 9.35206H29.1464L28.4017 11.8873H27.0745L30.5352 0.196869H33.5137ZM29.4798 8.17887H32.3485L30.9691 2.99727L29.4798 8.17887Z" fill="white"/>
<path d="M46.3344 0.196869V10.7141H51.1397V11.8873H42.9434V0.196869H46.3344Z" fill="white"/>
<path d="M57.8708 0.196869L61.1252 11.8873H57.7168L57.0231 9.35206H53.5035L52.7589 11.8873H51.4317L54.8923 0.196869H57.8708ZM53.837 8.17887H56.7057L55.3262 2.99727L53.837 8.17887Z" fill="white"/>
<path d="M69.6804 3.46869L68.1041 3.75931C68.1724 3.44592 68.2073 3.18209 68.2073 2.97182C68.2073 1.61247 67.3823 0.933465 65.7323 0.933465C64.4305 0.933465 63.7797 1.40221 63.7797 2.33835C63.7797 3.04012 64.5082 3.64279 65.964 4.14502C68.7724 5.11062 70.1773 6.53828 70.1773 8.42797C70.1773 9.53554 69.7836 10.4248 68.9947 11.0958C68.2073 11.7668 67.1586 12.1016 65.8515 12.1016C62.956 12.1016 61.5096 10.9793 61.5096 8.73601C61.5096 8.55387 61.5243 8.32753 61.5525 8.05968L63.1877 7.69942C63.0618 8.19628 62.9989 8.62753 62.9989 8.99314C62.9989 10.4436 63.8292 11.1681 65.4912 11.1681C66.8211 11.1681 67.4867 10.6458 67.4867 9.60117C67.4867 8.8244 66.6899 8.14271 65.0975 7.55478C62.7966 6.7097 61.6462 5.35973 61.6462 3.50351C61.6462 2.45353 62.0306 1.60577 62.798 0.964269C63.5667 0.321423 64.5765 0 65.8274 0C68.3961 0 69.6804 1.15578 69.6804 3.46869Z" fill="white"/>
<path d="M74.7 6.07221V11.8873H71.309V0.196869H74.7V4.89902H77.4669V0.196869H80.8579V11.8873H77.4669V6.07221H74.7Z" fill="white"/>
<path d="M90.0908 0.196869V1.37006H85.9029V4.90705H89.4225V6.08025H85.9029V10.7141H90.8019V11.8873H82.5119V0.196869H90.0908Z" fill="white"/>
<path d="M99.5031 3.46869L97.9268 3.75931C97.9951 3.44592 98.0299 3.18209 98.0299 2.97182C98.0299 1.61247 97.205 0.933465 95.555 0.933465C94.2532 0.933465 93.6023 1.40221 93.6023 2.33835C93.6023 3.04012 94.3309 3.64279 95.7867 4.14502C98.5964 5.11062 100 6.53694 100 8.42797C100 9.53554 99.6063 10.4248 98.8174 11.0958C98.0299 11.7668 96.9813 12.1016 95.6742 12.1016C92.7787 12.1016 91.3323 10.9793 91.3323 8.73601C91.3323 8.55387 91.347 8.32753 91.3752 8.05968L93.0104 7.69942C92.8845 8.19628 92.8216 8.62753 92.8216 8.99314C92.8216 10.4436 93.6519 11.1681 95.3139 11.1681C96.6438 11.1681 97.3094 10.6458 97.3094 9.60117C97.3094 8.8244 96.5126 8.14271 94.9202 7.55478C92.6193 6.7097 91.4689 5.35973 91.4689 3.50351C91.4689 2.45353 91.8533 1.60577 92.6207 0.964269C93.3894 0.321423 94.3992 0 95.6501 0C98.2188 0 99.5031 1.15578 99.5031 3.46869Z" fill="white"/>
</g>
<defs>
<clipPath id="clip0">
<rect width="100" height="12.1016" fill="white"/>
</clipPath>
</defs>
</svg>
