<?xml version="1.0" standalone="no"?>
<!DOCTYPE svg PUBLIC "-//W3C//DTD SVG 20010904//EN"
 "http://www.w3.org/TR/2001/REC-SVG-20010904/DTD/svg10.dtd">
<svg version="1.0" xmlns="http://www.w3.org/2000/svg"
 width="192.000000pt" height="192.000000pt" viewBox="0 0 192.000000 192.000000"
 preserveAspectRatio="xMidYMid meet">
<metadata>
Created by potrace 1.11, written by Peter Selinger 2001-2013
</metadata>
<g transform="translate(0.000000,192.000000) scale(0.100000,-0.100000)"
fill="#000000" stroke="none">
<path d="M817 1830 c-343 -62 -602 -293 -704 -627 -24 -79 -26 -104 -26 -238
0 -134 2 -159 26 -238 92 -301 303 -512 604 -604 79 -24 104 -26 238 -26 134
0 159 2 238 26 301 92 512 303 604 604 24 79 26 104 26 238 0 134 -2 159 -26
238 -92 301 -306 515 -604 603 -97 28 -286 41 -376 24z m-276 -672 c0 -122 3
-149 12 -135 7 10 53 78 102 150 l90 132 93 3 c50 1 92 -1 92 -5 0 -4 -32 -48
-71 -98 -39 -49 -88 -113 -110 -141 l-40 -52 112 -182 c61 -101 113 -189 116
-197 4 -10 -13 -13 -84 -13 l-89 0 -49 88 c-27 48 -64 113 -83 145 l-34 59
-29 -34 c-27 -32 -28 -36 -29 -145 l0 -113 -80 0 -80 0 0 338 c0 186 3 342 7
345 3 4 39 7 80 7 l73 0 1 -152z m979 105 c-1 -45 -10 -61 -159 -278 l-159
-230 159 -3 159 -2 0 -65 0 -65 -265 0 -265 0 0 43 c0 39 14 63 160 272 88
126 160 233 160 237 0 5 -65 8 -145 8 l-145 0 0 65 0 65 250 0 250 0 0 -47z"/>
</g>
</svg>
