<?xml version="1.0" encoding="utf-8"?>
<!-- Generator: Adobe Illustrator 21.1.0, SVG Export Plug-In . SVG Version: 6.00 Build 0)  -->
<svg version="1.1" id="Layer_1" xmlns="http://www.w3.org/2000/svg" xmlns:xlink="http://www.w3.org/1999/xlink" x="0px" y="0px"
	 viewBox="0 0 300 132" style="enable-background:new 0 0 300 132;" xml:space="preserve">
<style type="text/css">
	.st0{fill:#BE1E2D;}
</style>
<g>
	<path class="st0" d="M9.7,57.8c2.9-0.9,3.2-2.5,3.4-7c0.1-3.4,0.2-11.7,0.2-20.3c0-9.6-0.1-20.3-0.2-22.1c-0.2-2.7-0.6-3.8-2.7-4.4
		C8.9,3.5,6.9,3.3,4.3,2.9C4,2.5,4,0.4,4.4,0.1c3.6,0,8,0.3,12.8,0.3h41.7c4.5,0,9.8-0.4,12.4-0.4c0.3,0.5,0.3,2.4,0,2.8
		c-2.2,0.4-4,0.6-5.1,1.1C64,4.7,63.6,5.7,63.4,9c-0.2,3.3-0.2,9.5-0.2,21.3c0,8.6-0.1,19.5,0.2,22.9c0.3,2.8,0.9,3.9,2.8,4.5
		c1.4,0.5,3.5,0.8,6.4,1.1c0.2,0.4,0.1,2.5-0.3,2.9c-2.8,0-7.4-0.3-13.4-0.3c-4.7,0-9.8,0.2-12.6,0.3c-0.4-0.4-0.3-2.6,0-2.9
		c2.1-0.2,4.7-0.6,6-1c1.8-0.6,2.2-1.9,2.3-4.6c0.1-2.1,0.1-15.7,0.1-22.4c0-8.7,0-23-0.2-25.5c-0.1-0.4-0.5-0.9-0.8-0.9
		c-2.2-0.2-29.3-0.1-31.1,0.1c-0.2,0-0.4,0.5-0.4,0.6c-0.2,2.3-0.2,17.2-0.2,25.7c0,6.4,0,19.1,0.1,21.3c0.1,3.4,0.6,4.9,3.2,5.6
		c1.4,0.4,3,0.7,5.9,1.1c0.3,0.5,0.1,2.6-0.4,2.9c-3.9-0.1-7.8-0.3-12.9-0.3c-6.5,0-11.2,0.3-13.2,0.3c-0.3-0.5-0.4-2.5-0.1-2.8
		C6.7,58.5,8.4,58.2,9.7,57.8z"/>
	<path class="st0" d="M117.2,40.8c0,7.6-3.1,14.3-9.3,18.1c-2.7,1.8-7.4,3.7-11.6,3.7c-14.5,0-19.8-11-19.8-21.2
		c0-7.8,3.6-13.1,8.7-16.6c3.6-2.3,8.4-4,13-4C110.2,20.8,117.2,29.6,117.2,40.8z M90.1,26.1c-2.6,1.7-5.1,5.3-5.1,12.8
		c0,11.7,5.9,19.6,13.8,19.6c2.1,0,4.4-0.5,6.1-2.1c2.7-2.5,3.8-6.4,3.8-12.5c0-11.5-5.4-19.2-13.8-19.2
		C93.3,24.7,91.4,25.2,90.1,26.1z"/>
	<path class="st0" d="M125.6,54.2c2.1-4.4,7.4-17.7,10.1-25.3c0.5-1.4,0.6-2.1-0.2-4c-0.1-0.2,0.1-0.5,0.2-0.7
		c1.1-0.9,5.3-3.5,5.9-3.5c0.2,0,0.6,0.3,0.7,0.5c3.4,9.1,10.6,27.3,13,32.3c2.1,4.1,2.4,4.4,7.8,5.2c0.2,0.3,0,2.6-0.3,2.9
		c-2.8-0.1-7.1-0.3-10-0.3c-3,0-6.5,0.2-8.4,0.3c-0.3-0.2-0.5-2.5-0.3-2.8c0.8-0.2,2.2-0.5,3-1c0.4-0.2,0.8-0.9,0.4-1.8
		c-1.9-5.2-7.5-18.9-9.3-23.2c-0.1-0.2-0.4-0.1-0.5,0.1c-0.8,2-5.8,15.9-7,19.7c-1.3,4-0.7,4.8,1.2,5.3c0.8,0.3,2,0.5,3.5,0.8
		c0.2,0.2,0,2.7-0.3,2.9c-1.7,0-6.7-0.3-9.2-0.3c-2.7,0-5.8,0.3-7.6,0.3c-0.3-0.3-0.4-2.6-0.1-2.9C123.5,58,124.2,57.2,125.6,54.2z"
		/>
	<path class="st0" d="M167.7,58.1c2.1-0.7,2.3-1.6,2.3-4.7c0-4.4,0.1-9,0.1-13.7c0-4.1,0-7.9-0.2-11.6c-0.1-1.7-0.8-2.5-2.3-2.9
		c-1.3-0.3-2.1-0.4-3.3-0.6c-0.2-0.7-0.1-2.5,0.3-2.9c1,0,3.7,0.3,8.8,0.3c5.4,0,8.8-0.3,9.6-0.3c0.4,0.4,0.4,2.5,0.2,2.9
		c-1.3,0.1-2.3,0.3-3.5,0.6c-1.4,0.3-2.1,1.1-2.2,3.1c0,3.8,0,14.8-0.1,18.9c0,0.2,0.3,0.6,0.5,0.4c2.8-2.5,14.4-14.6,17.1-18.1
		c0.3-0.4,0.5-0.8,0.5-1.4c0-1.7-0.3-2.5-1.9-2.9c-0.7-0.2-1.8-0.4-3-0.6c-0.2-0.5,0-2.6,0.4-2.9c1.8,0.1,4.9,0.3,8.5,0.3
		c3.4,0,7.4-0.2,9.3-0.3c0.2,0.5,0.3,2.3,0,2.8c-1.6,0.3-2.9,0.6-3.9,0.9c-1.3,0.5-1.7,1.8-1.7,2.7c-0.2,6.1,0,22.2,0.2,26.7
		c0.1,1.6,0.7,2.5,2,3c1.5,0.5,3.2,0.8,4.7,1c0.3,0.2-0.1,2.6-0.4,2.9c-2.2,0-6.5-0.3-10.3-0.3c-3.4,0-6.9,0.2-7.9,0.3
		c-0.3-0.3-0.3-2.2-0.2-2.5c3.9-1.1,4.5-1.9,4.5-3.5c0.1-4.4,0-14.5,0-21.1c0-0.3-0.3-0.5-0.5-0.3c-2.7,3.2-14.2,15.1-17.2,18.2
		c-0.4,0.4-0.5,0.9-0.5,1.7c0,2.9,0.6,3.5,2.4,4l3.7,0.7c0.2,0.2-0.1,2.5-0.4,2.8c-1.3,0-6-0.3-9.9-0.3c-3.2,0-7.6,0.3-9.3,0.3
		c-0.3-0.3-0.3-2.6,0-2.9C165.4,58.7,167,58.4,167.7,58.1z"/>
	<path class="st0" d="M217.1,58.2c2-0.5,2.5-1.3,2.6-3.8c0.1-4.2,0.1-9.3,0.1-13.8c0-4-0.1-9.4-0.2-12.4c-0.1-1.7-0.7-2.6-2.2-3
		c-1.2-0.3-2.2-0.4-3.4-0.6c-0.2-0.5-0.2-2.5,0.3-2.9c1,0,3.7,0.3,8.8,0.3c5.4,0,8.6-0.3,9.4-0.3c0.4,0.4,0.5,2.5,0.1,2.9
		c-1.2,0.1-2,0.3-3.2,0.6c-1.3,0.3-2,1.1-2.1,2.7v10.6c0,0.2,0.3,0.5,0.5,0.5h8.2c3.9,0,7.7,0.1,9,0c0.1,0,0.4-0.2,0.4-0.5
		c0.1-2.2-0.2-9.8-0.2-10.4c0-1.5-0.5-2.4-2.1-2.8c-0.8-0.2-2.5-0.6-3.5-0.7c-0.2-0.6-0.1-2.6,0.3-2.9c1.7,0,5,0.3,9.5,0.3
		c4.5,0,7.5-0.2,9.4-0.3c0.3,0.5,0.3,2.4,0,2.8c-0.6,0.2-2.1,0.4-2.9,0.6c-2,0.5-2.7,1.1-2.8,3.2c-0.1,2.3-0.1,7.4-0.1,12.4
		c0,5.5,0.1,11.3,0.2,13.8c0.1,2.4,1.3,3.1,3.1,3.6l3.6,0.7c0.3,0.2,0,2.6-0.4,2.9c-2.8,0-5.7-0.3-9.8-0.3c-3.6,0-9,0.2-9.8,0.3
		c-0.3-0.3-0.3-2.5-0.1-2.8c1.2-0.2,2.5-0.4,3.4-0.7c1.7-0.4,2.2-1.4,2.2-3.1c0.1-3.3,0.1-7.6,0-11.9c0-0.2-0.1-0.3-0.3-0.3h-17.2
		c-0.2,0-0.4,0.3-0.4,0.5v11.2c0.1,2.3,0.9,3.1,2.6,3.6l3.4,0.7c0.2,0.3,0,2.4-0.4,2.8c-1.2,0-4.9-0.3-9.7-0.3c-4,0-8.1,0.3-9.4,0.3
		c-0.4-0.3-0.4-2.6-0.1-2.9L217.1,58.2z"/>
	<path class="st0" d="M284.2,29.7c-1.7-2.5-4.6-3.8-7.6-3.8c-2.2,0-3.5,0.6-4,1c-1.1,0.8-2.9,4-4.2,7.1c-0.3,0.4-3-1.1-2.9-2
		c0.2-1.4,1.7-5.3,2.3-5.9c4.3-3,10.6-5.5,13-5.5c4.4,0,7.7,2,9.9,5.3c1.7,2.8,2.3,6.2,2.3,9.8c0,5.2-0.4,12.8-0.4,16.8
		c0,2.1,0.8,4,3.8,4c1.6,0,2.3-0.1,3.5-0.5c0.1,0.4-0.1,2.7-0.4,3c-2.4,2.6-5.9,3.5-8.2,3.5c-2.8,0-4.4-1.1-5.1-2.6
		c-0.4-0.6-0.6-1.7-0.8-2.5c0-0.1-0.3-0.2-0.4-0.1c-5.1,3.2-9.3,5.2-11.8,5.2c-1.9,0-3.9-1-5.5-2.5c-2-2.2-3.4-5.3-3.4-8.7
		c0-1.9,1.3-5,1.8-5.7c3.3-1.8,15-4.6,18.8-6.4c0.2-0.1,0.6-0.7,0.6-1c0.2-0.9,0.1-2,0.1-2.7C285.7,33.6,285.4,31.4,284.2,29.7z
		 M285.1,42.2c-3.7,1.3-10.1,3.3-11.8,4.6c-0.4,0.2-1,2.1-1,3.2c0,3.9,2.7,6.7,7,6.7c1.3,0,3.5-0.5,5.1-1.6c0.7-0.4,1-1.2,1.1-2.3
		c0.2-2.1,0.2-8.5,0.2-10.2C285.6,42.5,285.3,42.1,285.1,42.2z"/>
	<path class="st0" d="M7,124.4c3-7.1,8.5-21.9,9.8-25.6c0.5-1.2,0.9-2.5,1-3.3c0.2,0,0.9,0.1,1.9,0.1c1.2,0,1.8-0.1,1.9-0.1
		c0.2,0.9,0.5,1.9,0.9,3c1.2,3.3,7.7,21.8,9.7,26.6c1.7,3.9,2.1,4.2,6.3,4.7c0.2,0.2,0.1,1.5-0.1,1.7c-1.5-0.1-4.5-0.2-7.1-0.2
		c-2.9,0-6.4,0.1-7.7,0.2c-0.2-0.2-0.3-1.5-0.1-1.7c1.3-0.2,2.3-0.3,3.2-0.6c0.8-0.3,0.8-0.9,0.6-1.5c-0.7-2.5-2.5-7.4-3.5-10
		c-0.1-0.2-0.4-0.4-0.5-0.4c-0.8-0.1-2.9,0-5.5,0c-3.7,0-4.2-0.1-4.9,0c-0.2,0-0.5,0.3-0.6,0.5c-1.2,3.1-3,8-3.2,9.4
		c-0.1,1,0.1,1.6,1.9,2.1c0.7,0.2,1.7,0.3,2.8,0.5c0.2,0.2,0.1,1.5-0.1,1.7c-1.2,0-4.2-0.2-7.5-0.2c-3.3,0-5.2,0.2-6.3,0.2
		c-0.2-0.2-0.2-1.5,0-1.7C4.4,129.3,5.1,128.9,7,124.4z M18.2,101.5c-1,2.9-3.4,9.5-4.4,12.6c0,0.2,0.1,0.3,0.2,0.4
		c0.6,0.1,2.5,0.1,4.7,0.1c1.4,0,3.3,0,3.9-0.1c0.1,0,0.3-0.2,0.2-0.5c-1.2-3.6-3.4-10.1-4.3-12.6C18.4,101.5,18.3,101.4,18.2,101.5
		z"/>
	<path class="st0" d="M41,129.4c1.2-0.3,1.5-0.8,1.5-2.2c0.1-2.4,0.1-5.5,0.1-8.1c0-2.3-0.1-5.5-0.1-7.3c-0.1-1-0.4-1.5-1.3-1.7
		c-0.7-0.2-1.3-0.2-2-0.3c-0.1-0.3-0.1-1.5,0.2-1.7c0.6,0,2.2,0.2,5.1,0.2c3.2,0,5-0.2,5.5-0.2c0.2,0.2,0.3,1.5,0.1,1.7
		c-0.7,0.1-1.2,0.2-1.9,0.3c-0.8,0.2-1.2,0.6-1.2,1.6v6.2c0,0.1,0.2,0.3,0.3,0.3h4.8c2.3,0,4.5,0.1,5.3,0c0.1,0,0.2-0.1,0.2-0.3
		c0.1-1.3-0.1-5.8-0.1-6.1c0-0.9-0.3-1.4-1.2-1.6c-0.5-0.1-1.5-0.3-2-0.4c-0.1-0.3-0.1-1.5,0.2-1.7c1,0,2.9,0.2,5.6,0.2
		c2.6,0,4.4-0.1,5.5-0.2c0.2,0.3,0.2,1.4,0,1.6c-0.4,0.1-1.2,0.2-1.7,0.3c-1.2,0.3-1.6,0.6-1.6,1.9c-0.1,1.3-0.1,4.4-0.1,7.3
		c0,3.2,0.1,6.6,0.1,8.1c0.1,1.4,0.8,1.8,1.8,2.1l2.1,0.4c0.2,0.1,0,1.5-0.2,1.7c-1.6,0-3.3-0.2-5.7-0.2c-2.1,0-5.3,0.1-5.7,0.2
		c-0.2-0.2-0.2-1.5-0.1-1.6c0.7-0.1,1.5-0.2,2-0.4c1-0.2,1.3-0.8,1.3-1.8c0.1-1.9,0.1-4.5,0-7c0-0.1-0.1-0.2-0.2-0.2H47.3
		c-0.1,0-0.2,0.2-0.2,0.3v6.6c0.1,1.3,0.5,1.8,1.5,2.1l2,0.4c0.1,0.2,0,1.4-0.2,1.6c-0.7,0-2.9-0.2-5.7-0.2c-2.3,0-4.7,0.2-5.5,0.2
		c-0.2-0.2-0.2-1.5-0.1-1.7L41,129.4z"/>
	<path class="st0" d="M80.5,112.7c-1-1.5-2.7-2.2-4.4-2.2c-1.3,0-2,0.3-2.3,0.6c-0.6,0.5-1.7,2.3-2.5,4.2c-0.2,0.2-1.8-0.6-1.7-1.2
		c0.1-0.8,1-3.1,1.3-3.4c2.5-1.7,6.2-3.2,7.7-3.2c2.6,0,4.5,1.2,5.8,3.1c1,1.6,1.3,3.7,1.3,5.8c0,3-0.2,7.5-0.2,9.8
		c0,1.2,0.5,2.3,2.2,2.3c0.9,0,1.3-0.1,2-0.3c0.1,0.2-0.1,1.6-0.2,1.7c-1.4,1.5-3.5,2-4.8,2c-1.6,0-2.6-0.6-3-1.5
		c-0.2-0.3-0.4-1-0.5-1.5c0-0.1-0.2-0.1-0.2-0.1c-3,1.9-5.4,3-7,3c-1.1,0-2.3-0.6-3.2-1.5c-1.2-1.3-2-3.1-2-5.1
		c0-1.1,0.8-2.9,1.1-3.3c1.9-1,8.8-2.7,11.1-3.8c0.1-0.1,0.4-0.4,0.4-0.6c0.1-0.5,0.1-1.2,0.1-1.6C81.3,115,81.2,113.7,80.5,112.7z
		 M81,120.1c-2.2,0.8-5.9,1.9-7,2.7c-0.2,0.1-0.6,1.2-0.6,1.9c0,2.3,1.6,4,4.1,4c0.8,0,2-0.3,3-0.9c0.4-0.2,0.6-0.7,0.6-1.3
		c0.1-1.2,0.1-5,0.1-6C81.3,120.2,81.1,120,81,120.1z"/>
	<path class="st0" d="M93.3,129.4c1.2-0.3,1.5-0.8,1.5-2.2c0.1-2.4,0.1-5.5,0.1-8.1c0-2.3-0.1-5.5-0.1-7.3c-0.1-1-0.4-1.5-1.3-1.7
		c-0.7-0.2-1.3-0.2-2-0.3c-0.1-0.3-0.1-1.5,0.2-1.7c0.6,0,2.2,0.2,5.1,0.2c3.2,0,5-0.2,5.5-0.2c0.2,0.2,0.3,1.5,0.1,1.7
		c-0.7,0.1-1.2,0.2-1.9,0.3c-0.8,0.2-1.2,0.6-1.2,1.6v6.2c0,0.1,0.2,0.3,0.3,0.3h4.8c2.3,0,4.5,0.1,5.3,0c0.1,0,0.2-0.1,0.2-0.3
		c0.1-1.3-0.1-5.8-0.1-6.1c0-0.9-0.3-1.4-1.2-1.6c-0.5-0.1-1.5-0.3-2-0.4c-0.1-0.3-0.1-1.5,0.2-1.7c1,0,2.9,0.2,5.6,0.2
		c2.6,0,4.4-0.1,5.5-0.2c0.2,0.3,0.2,1.4,0,1.6c-0.4,0.1-1.2,0.2-1.7,0.3c-1.2,0.3-1.6,0.6-1.6,1.9c-0.1,1.3-0.1,4.4-0.1,7.3
		c0,3.2,0.1,6.6,0.1,8.1c0.1,1.4,0.8,1.8,1.8,2.1l2.1,0.4c0.2,0.1,0,1.5-0.2,1.7c-1.6,0-3.3-0.2-5.7-0.2c-2.1,0-5.3,0.1-5.7,0.2
		c-0.2-0.2-0.2-1.5-0.1-1.6c0.7-0.1,1.5-0.2,2-0.4c1-0.2,1.3-0.8,1.3-1.8c0.1-1.9,0.1-4.5,0-7c0-0.1-0.1-0.2-0.2-0.2H99.6
		c-0.1,0-0.2,0.2-0.2,0.3v6.6c0.1,1.3,0.5,1.8,1.5,2.1l2,0.4c0.1,0.2,0,1.4-0.2,1.6c-0.7,0-2.9-0.2-5.7-0.2c-2.3,0-4.7,0.2-5.5,0.2
		c-0.2-0.2-0.2-1.5-0.1-1.7L93.3,129.4z"/>
	<path class="st0" d="M134.5,129.4c0.9-0.2,1.2-0.8,1.2-1.7c0.1-1.6,0.1-3.4,0.1-7.1c-2.3,1.1-4.3,1.6-6.6,1.6
		c-1.9,0-3.6-0.5-4.6-1.3c-1.3-1-1.8-2.4-1.9-4.6v-4.4c-0.1-1-0.4-1.5-1.3-1.7c-0.8-0.2-1.3-0.2-2-0.3c-0.2-0.4-0.1-1.5,0.1-1.7
		c0.6,0,2.2,0.2,5.2,0.2c2.6,0,4.3-0.2,4.7-0.2c0.2,0.2,0.2,1.5,0.1,1.7c-2,0.3-2.4,0.5-2.5,1.5c-0.1,0.9-0.1,3.1-0.1,4.5
		c0.3,3.1,2.6,3.9,5.1,3.9c1.5,0,2.7-0.3,3.5-0.7c-0.1-2,0-5.4-0.1-7.3c0-0.8-0.4-1.2-1.2-1.5l-2.1-0.5c-0.1-0.3-0.1-1.5,0.2-1.6
		c1,0,2.9,0.2,5.6,0.2c2.3,0,3.7-0.1,5.4-0.2c0.1,0.3,0.1,1.3,0,1.6c-0.4,0.1-1.2,0.2-1.5,0.3c-1.1,0.2-1.6,0.5-1.7,1.8
		c-0.1,1.4-0.1,4.5-0.1,7.2c0,3.1,0.1,6.9,0.1,8.2c0.1,1.4,0.5,1.9,1.5,2.2c0.7,0.2,1.5,0.3,2.3,0.4c0.2,0.2,0,1.5-0.2,1.7
		c-1.3,0-3.6-0.2-6-0.2c-2,0-5.2,0.1-5.8,0.2c-0.2-0.2-0.2-1.4-0.1-1.6C132.9,129.7,133.8,129.6,134.5,129.4z"/>
	<path class="st0" d="M167.3,126.1c0.1,0.4-0.2,1.4-0.3,1.6c-2.6,2.9-6.6,4.4-9.3,4.4c-3,0-5.4-1-7.1-2.8c-2.4-2.4-3.3-5.9-3.3-9.3
		c0-5.1,2.2-8.6,5.2-10.5c1.8-1.2,4.4-1.9,6.3-1.9c5.7,0,7.7,5,8.2,8.3c0.1,0.2,0.3,0.5,0.9,0.6c0.1,0.2-0.3,1.2-0.5,1.3
		c-2.5,0.7-10.4,1.2-15.3,1.3c-0.2,0.1-0.4,0.3-0.4,0.6c0.1,2,1,4.4,2.4,5.9c1.8,1.8,3.7,2.6,6.4,2.6c2.3,0,4.5-0.7,6.7-2.4
		C167.1,125.8,167.2,125.9,167.3,126.1z M151.7,116.4c0,0.1,0.1,0.4,0.3,0.4c1.9,0.1,8.8-0.1,9.9-0.3c0.1-0.1,0.3-0.3,0.3-0.5
		c-0.3-2.9-2.2-6.2-5.4-6.2C154.1,109.7,152,112.2,151.7,116.4z"/>
	<path class="st0" d="M172.3,129.4c1.2-0.3,1.5-0.8,1.5-2.2c0.1-2.4,0.1-5.5,0.1-8.1c0-2.3-0.1-5.5-0.1-7.3c-0.1-1-0.4-1.5-1.3-1.7
		c-0.7-0.2-1.3-0.2-2-0.3c-0.1-0.3-0.1-1.5,0.2-1.7c0.6,0,2.2,0.2,5.1,0.2c3.2,0,5-0.2,5.5-0.2c0.2,0.2,0.3,1.5,0.1,1.7
		c-0.7,0.1-1.2,0.2-1.9,0.3c-0.8,0.2-1.2,0.6-1.2,1.6v6.2c0,0.1,0.2,0.3,0.3,0.3h4.8c2.3,0,4.5,0.1,5.3,0c0.1,0,0.2-0.1,0.2-0.3
		c0.1-1.3-0.1-5.8-0.1-6.1c0-0.9-0.3-1.4-1.2-1.6c-0.5-0.1-1.5-0.3-2-0.4c-0.1-0.3-0.1-1.5,0.2-1.7c1,0,2.9,0.2,5.6,0.2
		s4.4-0.1,5.5-0.2c0.2,0.3,0.2,1.4,0,1.6c-0.4,0.1-1.2,0.2-1.7,0.3c-1.2,0.3-1.6,0.6-1.6,1.9c-0.1,1.3-0.1,4.4-0.1,7.3
		c0,3.2,0.1,6.6,0.1,8.1c0.1,1.4,0.8,1.8,1.8,2.1l2.1,0.4c0.2,0.1,0,1.5-0.2,1.7c-1.6,0-3.3-0.2-5.7-0.2c-2.1,0-5.3,0.1-5.7,0.2
		c-0.2-0.2-0.2-1.5-0.1-1.6c0.7-0.1,1.5-0.2,2-0.4c1-0.2,1.3-0.8,1.3-1.8c0.1-1.9,0.1-4.5,0-7c0-0.1-0.1-0.2-0.2-0.2h-10.1
		c-0.1,0-0.2,0.2-0.2,0.3v6.6c0.1,1.3,0.5,1.8,1.5,2.1l2,0.4c0.1,0.2,0,1.4-0.2,1.6c-0.7,0-2.9-0.2-5.7-0.2c-2.3,0-4.7,0.2-5.5,0.2
		c-0.2-0.2-0.2-1.5-0.1-1.7L172.3,129.4z"/>
	<path class="st0" d="M201.8,129.4c0.8-0.2,1.2-0.6,1.3-1.5c0.1-0.8,0.1-5.4,0.1-8.7c0-3.1-0.1-6.6-0.1-7.4
		c-0.1-0.9-0.5-1.5-1.3-1.7c-0.8-0.2-1.2-0.2-1.9-0.3c-0.1-0.4-0.1-1.5,0.2-1.7c0.6,0,2.2,0.2,5.1,0.2c3.2,0,5.2-0.2,5.6-0.2
		c0.2,0.2,0.2,1.5,0.1,1.7c-0.8,0.1-1.3,0.2-2,0.3c-0.8,0.2-1.2,0.6-1.3,1.6v7.1c2.3-0.1,3.4-0.4,4.1-1.2c0.8-0.8,1.8-2.6,2.4-4
		c2.6-5.7,4.5-6.2,6-6.2c0.9,0,1.6,0.3,2.1,0.9c0.1,0.5-0.4,3.1-0.6,3.9c-0.1,0.2-0.2,0.3-0.4,0.2c-0.9-0.3-2-0.6-2.5-0.6
		c-0.9,0-1.8,0.4-3,2.9c-0.8,1.7-1.9,3.5-2.8,4.3c0.8,0.3,1.7,1.2,2.2,1.9c1.5,2.1,3.2,4.7,4.7,6.6c1.4,1.8,2.2,2,5.1,2.2
		c0.2,0.3,0.1,1.5-0.1,1.6c-0.8,0.1-2.9,0.3-5,0.3c-1.6,0-2.7-0.3-3.8-1.7c-1.6-2.2-2.8-4-4.7-6.9c-1-1.6-2-2.6-3.6-2.7
		c0,2.3,0,5.8,0.1,7.5c0.1,0.9,0.5,1.5,1.4,1.7c0.7,0.2,1.3,0.2,2.1,0.3c0.1,0.4-0.1,1.5-0.2,1.7c-0.6,0-4.3-0.2-5.1-0.2
		c-2.1,0-5.6,0.2-6,0.2c-0.2-0.2-0.2-1.5-0.1-1.7C200.4,129.7,201.1,129.6,201.8,129.4z"/>
	<path class="st0" d="M249.2,119.2c0,4.5-1.8,8.4-5.4,10.7c-1.6,1-4.3,2.2-6.8,2.2c-8.5,0-11.6-6.5-11.6-12.5c0-4.6,2.1-7.7,5.1-9.7
		c2.1-1.3,4.9-2.3,7.7-2.3C245.1,107.5,249.2,112.7,249.2,119.2z M233.3,110.6c-1.5,1-3,3.1-3,7.5c0,6.9,3.5,11.5,8.1,11.5
		c1.2,0,2.6-0.3,3.6-1.2c1.6-1.5,2.2-3.8,2.2-7.3c0-6.8-3.2-11.3-8.1-11.3C235.2,109.7,234.1,110,233.3,110.6z"/>
	<path class="st0" d="M255.2,129.4c0.9-0.2,1.2-0.8,1.2-1.5c0.1-1.9,0.1-5.5,0.1-8.9c0-3,0-6-0.1-7.1c0-0.7-0.1-1.1-0.7-1.5
		c-0.6-0.4-1.8-0.6-2.6-0.8c-0.3-0.2-0.2-1.3,0-1.5c3.9-0.1,8.6-0.3,12.1-0.3c2.9,0,7.8,0.8,7.8,5.5c0,2.3-1.6,4.2-4.1,5
		c-0.1,0-0.1,0.1,0,0.2c3.1,0.7,5.5,2.4,5.5,5.7c0,3.1-2.2,5.1-4.9,6.3c-2.2,0.9-4.6,1.2-7.4,1.2c-1.9,0-7.2-0.2-9.2-0.2
		c-0.3-0.3-0.4-1.3-0.1-1.6C254.1,129.7,254.7,129.6,255.2,129.4z M268.7,114.5c0-3.7-3-5-7.3-4.7c-0.2,0-0.5,0.2-0.5,0.3
		c-0.1,0.7-0.1,5.1-0.1,7.7c0,0.1,0.1,0.3,0.2,0.3h2.9c1.9,0,2.7-0.2,3.3-0.6C268.1,117,268.7,115.7,268.7,114.5z M261.1,119.9
		c-0.2,0-0.3,0.2-0.3,0.3c0,3.2,0,5.5,0.1,7.1c0.1,0.6,0.4,1.4,0.9,1.7c0.8,0.4,2.2,0.6,2.8,0.6c3.1,0,5.1-1.5,5.1-4.6
		C269.6,121.7,267.1,119.9,261.1,119.9z"/>
	<path class="st0" d="M290.1,112.7c-1-1.5-2.7-2.2-4.4-2.2c-1.3,0-2,0.3-2.3,0.6c-0.6,0.5-1.7,2.3-2.5,4.2c-0.2,0.2-1.8-0.6-1.7-1.2
		c0.1-0.8,1-3.1,1.3-3.4c2.5-1.7,6.2-3.2,7.7-3.2c2.6,0,4.5,1.2,5.8,3.1c1,1.6,1.3,3.7,1.3,5.8c0,3-0.2,7.5-0.2,9.8
		c0,1.2,0.5,2.3,2.2,2.3c0.9,0,1.3-0.1,2-0.3c0.1,0.2-0.1,1.6-0.2,1.7c-1.4,1.5-3.5,2-4.8,2c-1.6,0-2.6-0.6-3-1.5
		c-0.2-0.3-0.4-1-0.5-1.5c0-0.1-0.2-0.1-0.2-0.1c-3,1.9-5.4,3-7,3c-1.1,0-2.3-0.6-3.2-1.5c-1.2-1.3-2-3.1-2-5.1
		c0-1.1,0.8-2.9,1.1-3.3c1.9-1,8.8-2.7,11.1-3.8c0.1-0.1,0.4-0.4,0.4-0.6c0.1-0.5,0.1-1.2,0.1-1.6
		C290.9,115,290.8,113.7,290.1,112.7z M290.6,120.1c-2.2,0.8-5.9,1.9-7,2.7c-0.2,0.1-0.6,1.2-0.6,1.9c0,2.3,1.6,4,4.1,4
		c0.8,0,2-0.3,3-0.9c0.4-0.2,0.6-0.7,0.6-1.3c0.1-1.2,0.1-5,0.1-6C290.9,120.2,290.7,120,290.6,120.1z"/>
</g>
</svg>
