<?xml version="1.0" encoding="utf-8"?>
<!-- Generator: Adobe Illustrator 21.1.0, SVG Export Plug-In . SVG Version: 6.00 Build 0)  -->
<svg version="1.1" id="Layer_1" xmlns="http://www.w3.org/2000/svg" xmlns:xlink="http://www.w3.org/1999/xlink" x="0px" y="0px"
	 viewBox="0 0 27 23" style="enable-background:new 0 0 27 23;" xml:space="preserve">
<style type="text/css">
	.st0{fill:#4D4D4D;}
	.st1{fill:#FFFFFF;}
</style>
<path class="st0" d="M7.3,7.5l-2.8,2.8l7.8,7.8L26.2,4.2l-2.8-2.8L12.2,12.4L7.3,7.5z"/>
<path class="st1" d="M23.3,1.3l2.8,2.8L12.2,18.1l-7.8-7.8l2.8-2.8l5,5L23.3,1.3 M21.9,0l-9.7,9.6L8.7,6.1L7.3,4.7L5.9,6.1L3.1,8.9
	l-1.4,1.4l1.4,1.4l7.8,7.8l1.4,1.4l1.4-1.4L27,6.2l0-4L24.7,0L21.9,0z"/>
<path class="st0" d="M21,20c0,0.5-0.5,1-1,1H3c-0.5,0-1-0.5-1-1V3c0-0.5,0.5-1,1-1h16.9l1.6-1.6C21,0.1,20.5,0,20,0H3
	C1.4,0,0,1.3,0,3v17c0,1.6,1.4,3,3,3h17c1.6,0,3-1.4,3-3v-9.8l-2,2V20z"/>
</svg>
