<svg xmlns="http://www.w3.org/2000/svg" viewBox="0 0 141.7 62.7"><defs><style>.a{fill:#ffd7dd;}.b{fill:#ff8daf;}.c{fill:#fff;}</style></defs><title>Logo_invert</title><path class="a" d="M80.2,15.5V13.4l1.9-1.7c3.2-2.9,4.7-4.5,4.8-6.2,0-1.2-.7-2.1-2.4-2.1a4.86,4.86,0,0,0-3.1,1.2l-1-2.4A8.3,8.3,0,0,1,85.2.7c3.3,0,5.1,1.9,5.1,4.6,0,2.4-1.8,4.4-3.9,6.3l-1.3,1.1h5.5v2.8Z" transform="translate(0 -0.3)"/><path class="a" d="M98.7,15.4V11.9H92.2V9.7L97.7.8h4.2V9.4h1.8V12h-1.8v3.5Zm0-6V6.2a24.37,24.37,0,0,1,.1-2.7h-.1c-.5.9-.9,1.8-1.3,2.7l-2,3.2h3.3Z" transform="translate(0 -0.3)"/><path class="b" d="M109.2,15.5V13.4l1.9-1.7c3.2-2.9,4.7-4.5,4.8-6.2,0-1.2-.7-2.1-2.4-2.1a4.86,4.86,0,0,0-3.1,1.2l-1-2.4A8.3,8.3,0,0,1,114.2.7c3.3,0,5.1,1.9,5.1,4.6,0,2.4-1.8,4.4-3.9,6.3l-1.3,1.1h5.5v2.8Z" transform="translate(0 -0.3)"/><path class="b" d="M127.7,15.4V11.9h-6.5V9.7L126.7.8h4.2V9.4h1.8V12h-1.8v3.5Zm0-6V6.2a24.37,24.37,0,0,1,.1-2.7h-.1c-.5.9-.9,1.8-1.3,2.7l-2,3.2h3.3Z" transform="translate(0 -0.3)"/><path class="c" d="M13.4,62.3,0,20.5H10.4l5.1,17.7c1.4,5,2.7,9.7,3.7,15h.2c1.1-5,2.4-10,3.8-14.8L35.6.3H45.7l-21.2,62Z" transform="translate(0 -0.3)"/><path class="c" d="M80.8,41c0,13.7-8.3,22-20.5,22-12.4,0-19.7-9.4-19.7-21.3,0-12.5,8-21.9,20.4-21.9C73.8,19.8,80.8,29.4,80.8,41Zm-30.2.6c0,8.2,3.8,14,10.2,14s10.1-6.1,10.1-14.2c0-7.5-3.6-14-10.1-14S50.6,33.4,50.6,41.6Z" transform="translate(0 -0.3)"/><path class="c" d="M96.5,20.5V62.3H87V20.5Z" transform="translate(0 -0.3)"/><path class="c" d="M104.7,21.1a79.28,79.28,0,0,1,12.8-.9c7.9,0,13.1,1.4,17.1,4.5,4.3,3.2,7.1,8.4,7.1,15.8,0,8-2.9,13.5-7,16.9-4.4,3.7-11.1,5.4-19.3,5.4a83.3,83.3,0,0,1-10.7-.6V21.1Zm9.5,34.1a16.19,16.19,0,0,0,3.3.2c8.6.1,14.2-4.7,14.2-14.7.1-8.7-5-13.3-13.2-13.3a18.57,18.57,0,0,0-4.3.4Z" transform="translate(0 -0.3)"/><path class="c" d="M50.8,15.5V13.4l1.9-1.7c3.2-2.9,4.7-4.5,4.8-6.2,0-1.2-.7-2.1-2.4-2.1A4.86,4.86,0,0,0,52,4.6L51,2.2A8.3,8.3,0,0,1,55.8.7c3.3,0,5.1,1.9,5.1,4.6,0,2.4-1.8,4.4-3.9,6.3l-1.3,1.1h5.5v2.8Z" transform="translate(0 -0.3)"/><path class="c" d="M69.3,15.4V11.9H62.8V9.7L68.3.8h4.2V9.4h1.8V12H72.5v3.5Zm0-6V6.2a24.37,24.37,0,0,1,.1-2.7h-.1c-.5.9-.9,1.8-1.3,2.7L66,9.4h3.3Z" transform="translate(0 -0.3)"/></svg>