<svg xmlns="http://www.w3.org/2000/svg" xmlns:xlink="http://www.w3.org/1999/xlink" viewBox="0 0 235.28 59.53"><defs><style>.a{fill:none;}.b{clip-path:url(#a);}.c{fill:#fff;}</style><clipPath id="a"><rect class="a" y="0.23" width="235.28" height="59.07" rx="6.01" ry="6.01"/></clipPath></defs><title>void_strip</title><g class="b"><path class="c" d="M2,16l-4.92,2.62L-7.62,9.8l4.94-2.56.48.91-3.91,2L-4.6,13l3.68-1.94.48.91-3.67,1.95,1.73,3.25,3.9-2.07Z"/><path class="c" d="M10.71,11.41,9.53,12,.76,7.18l-.05.06c.53.83,1,1.61,1.37,2.34l2.67,5-1,.5L-.89,6.24.27,5.62,9,10.45h.05l-.61-1c-.34-.58-.58-1-.7-1.25L5.06,3.08l1-.51Z"/><path class="c" d="M13.5-4l2.34-1.23L17.91,7.59,15.39,8.93,5.91,0,8.24-1.25l5.5,5.39c.32.33.67.71,1.06,1.16a6.54,6.54,0,0,1,.79,1,23,23,0,0,1-.71-2.71Z"/><path class="c" d="M29.78-5.71a6.72,6.72,0,0,1,.87,4.87,5.61,5.61,0,0,1-3.08,3.5A5.6,5.6,0,0,1,23,3.23,6.67,6.67,0,0,1,19.39-.22a6.65,6.65,0,0,1-.86-4.87,5.66,5.66,0,0,1,3.1-3.48,5.59,5.59,0,0,1,4.61-.6A6.72,6.72,0,0,1,29.78-5.71Zm-8,4.22A5.15,5.15,0,0,0,24,.9,2.75,2.75,0,0,0,26.54.72c1.84-1,2.12-2.7.82-5.15s-2.87-3.19-4.71-2.22a2.77,2.77,0,0,0-1.59,2A5.1,5.1,0,0,0,21.83-1.49Z"/><path class="c" d="M1.8,31.6A2.75,2.75,0,0,1,2,34.15,4.7,4.7,0,0,1-.26,36.27l-1,.55L.55,40.28l-1,.55L-5.15,32l2.3-1.22C-.67,29.6.89,29.88,1.8,31.6Zm-3.56,4.33.92-.49A3.88,3.88,0,0,0,.9,34a1.82,1.82,0,0,0-.14-1.68,1.69,1.69,0,0,0-1.26-1,3.27,3.27,0,0,0-2,.52l-1.15.6Z"/><path class="c" d="M11.73,34.36,6.81,37l-4.7-8.85L7,25.52l.49.91L3.59,28.5l1.52,2.86,3.66-2,.48.91-3.63,2,1.73,3.25,3.89-2.06Z"/><path class="c" d="M20.43,29.74l-1.17.63-8.77-4.86h-.05c.52.83,1,1.61,1.36,2.34l2.68,5-1,.51-4.65-8.8L10,24l8.75,4.83h0l-.61-1c-.35-.58-.58-1-.71-1.25L14.8,21.45l1-.51Z"/><path class="c" d="M23.23,14.25,25.56,13l2.08,12.88-2.52,1.37-9.49-8.94L18,17.08l5.5,5.41c.31.32.67.7,1.06,1.15s.65.75.79.94a19.64,19.64,0,0,1-.71-2.71Z"/><path class="c" d="M39.51,12.62a6.74,6.74,0,0,1,.87,4.88A5.63,5.63,0,0,1,37.29,21a5.62,5.62,0,0,1-4.61.59,6.71,6.71,0,0,1-3.57-3.46,6.68,6.68,0,0,1-.86-4.88,5.7,5.7,0,0,1,3.11-3.48A5.58,5.58,0,0,1,36,9.17,6.74,6.74,0,0,1,39.51,12.62Zm-8,4.23a5.17,5.17,0,0,0,2.15,2.4,2.76,2.76,0,0,0,2.57-.18c1.85-1,2.11-2.72.77-5.16s-2.9-3.2-4.7-2.23a2.77,2.77,0,0,0-1.59,2A5.13,5.13,0,0,0,31.55,16.85Z"/><path class="c" d="M44.64,16.91,38.86,6l2.31-1.23L47,15.68Z"/><path class="c" d="M55.73,3.9a6,6,0,0,1,.65,4.94,7,7,0,0,1-3.67,3.78l-3.08,1.63L43.84,3.35l3.43-1.81A6.46,6.46,0,0,1,52.16.75,5.9,5.9,0,0,1,55.73,3.9ZM53.35,5.24q-1.86-3.53-5-1.87L47.12,4l3.76,7.1,1-.52Q55.26,8.83,53.35,5.24Z"/><path class="c" d="M66.16-.19a5.5,5.5,0,0,1,.7,3.9,4.31,4.31,0,0,1-2.34,2.81,4.34,4.34,0,0,1-3.65.4,5.56,5.56,0,0,1-2.8-2.81A5.46,5.46,0,0,1,57.31.23,4.27,4.27,0,0,1,59.7-2.56a4.18,4.18,0,0,1,3.61-.37A5.45,5.45,0,0,1,66.16-.19ZM59.07,3.54a4.81,4.81,0,0,0,2.21,2.33,3.12,3.12,0,0,0,2.8-.25,3,3,0,0,0,1.73-2.11A4.87,4.87,0,0,0,65.08.38a4.69,4.69,0,0,0-2.19-2.31,3,3,0,0,0-2.69.25A3.13,3.13,0,0,0,58.44.44,4.73,4.73,0,0,0,59.07,3.54Z"/><path class="c" d="M72.74-6a2.78,2.78,0,0,1,.18,2.55,4.7,4.7,0,0,1-2.24,2.12l-1,.56,1.8,3.47-1,.55L65.76-5.64l2.32-1.21C70.26-8,71.82-7.78,72.74-6ZM69.17-1.7l.91-.49a4,4,0,0,0,1.75-1.5,1.81,1.81,0,0,0-.14-1.73,1.75,1.75,0,0,0-1.27-1,3.45,3.45,0,0,0-2,.52l-1.15.61Z"/><path class="c" d="M5,55.77a5.52,5.52,0,0,1,.69,3.91,4.26,4.26,0,0,1-2.34,2.8,4.34,4.34,0,0,1-3.65.41,5.54,5.54,0,0,1-2.85-2.81,5.5,5.5,0,0,1-.71-3.92,4.35,4.35,0,0,1,2.39-2.79A4.23,4.23,0,0,1,2.16,53,5.58,5.58,0,0,1,5,55.77Zm-7,3.74A4.77,4.77,0,0,0,.2,61.83a3.07,3.07,0,0,0,2.72-.25,3.07,3.07,0,0,0,1.74-2.1A4.87,4.87,0,0,0,4,56.35,4.79,4.79,0,0,0,1.77,54,3,3,0,0,0-1,54.29,3.06,3.06,0,0,0-2.74,56.4a4.71,4.71,0,0,0,.65,3.11Z"/><path class="c" d="M11.53,49.93a2.8,2.8,0,0,1,.18,2.55A4.7,4.7,0,0,1,9.47,54.6l-1,.55,1.84,3.48-1,.55L4.56,50.29l2.29-1.21C9.06,47.94,10.63,48.22,11.53,49.93ZM8,54.29l.93-.49a3.86,3.86,0,0,0,1.69-1.51,1.83,1.83,0,0,0-.14-1.74,1.67,1.67,0,0,0-1.27-1,3.29,3.29,0,0,0-2,.52l-1.15.61Z"/><path class="c" d="M21.47,52.7l-4.94,2.59-4.7-8.85,4.94-2.61.48.91-3.9,2.07,1.52,2.86,3.66-2,.48.91-3.66,2,1.72,3.26L21,51.78Z"/><path class="c" d="M30.17,48.08,29,48.71l-8.77-4.87h-.05c.53.84,1,1.62,1.38,2.34l2.66,5-.94.51-4.7-8.85,1.11-.57,8.74,4.83h.05l-.61-1c-.34-.56-.57-1-.7-1.25l-2.69-5.07,1-.52Z"/><path class="c" d="M33,32.63l2.33-1.24,2.07,12.89-2.51,1.33-9.49-8.94,2.33-1.24,5.5,5.41c.32.32.67.7,1.06,1.15a11.9,11.9,0,0,1,.79.94,23.33,23.33,0,0,1-.71-2.7Z"/><path class="c" d="M49.24,31a6.75,6.75,0,0,1,.82,4.87,5.63,5.63,0,0,1-3,3.49,5.68,5.68,0,0,1-4.63.6,6.73,6.73,0,0,1-3.55-3.47A6.62,6.62,0,0,1,38,31.58a5.72,5.72,0,0,1,3-3.49,5.58,5.58,0,0,1,4.61-.59A6.73,6.73,0,0,1,49.24,31Zm-8,4.22a5.12,5.12,0,0,0,2.15,2.38,2.74,2.74,0,0,0,2.56-.18c1.85-1,2.13-2.69.82-5.14S43.89,29,42.05,30a2.77,2.77,0,0,0-1.58,2,5.06,5.06,0,0,0,.81,3.16Z"/><path class="c" d="M54.36,35.27,48.58,24.34l2.31-1.23L56.68,34Z"/><path class="c" d="M65.45,22.25a6.08,6.08,0,0,1,.63,4.92A7.12,7.12,0,0,1,62.41,31L59.32,32.6,53.56,21.68,57,19.87a6.5,6.5,0,0,1,4.89-.79A5.9,5.9,0,0,1,65.45,22.25Zm-2.38,1.32c-1.25-2.35-2.9-3-5-1.87l-1.22.66,3.76,7.1,1-.53C63.87,27.75,64.35,26,63.07,23.57Z"/><path class="c" d="M75.89,18.14a5.5,5.5,0,0,1,.7,3.9,4.34,4.34,0,0,1-2.34,2.81,4.33,4.33,0,0,1-3.66.4,5.6,5.6,0,0,1-2.85-2.8,5.49,5.49,0,0,1-.66-3.92,4.35,4.35,0,0,1,2.39-2.79,4.23,4.23,0,0,1,3.62-.37A5.48,5.48,0,0,1,75.89,18.14Zm-7,3.73a4.75,4.75,0,0,0,2.2,2.33,3.55,3.55,0,0,0,4.44-2.33v0a4.86,4.86,0,0,0-.7-3.13,4.87,4.87,0,0,0-2.18-2.3,3,3,0,0,0-2.71.25,3.06,3.06,0,0,0-1.74,2.11,4.67,4.67,0,0,0,.64,3.1Z"/><path class="c" d="M82.47,12.29a2.86,2.86,0,0,1,.18,2.56A4.77,4.77,0,0,1,80.4,17l-1,.55L81.26,21l-1,.55-4.76-8.85,2.29-1.21Q81.1,9.73,82.47,12.29Zm-3.58,4.35.93-.5a4,4,0,0,0,1.75-1.48,1.91,1.91,0,0,0-.14-1.75,1.73,1.73,0,0,0-1.28-1,3.38,3.38,0,0,0-2,.52L77,13Z"/><path class="c" d="M92.4,15.07l-4.94,2.61L82.77,8.83,87.7,6.24l.48.91L84.29,9.24l1.51,2.85,3.66-2L90,11l-3.67,1.94L88,16.25l3.91-2.07Z"/><path class="c" d="M101.12,10.44l-1.17.63L91.11,6.24h0c.53.83,1,1.62,1.37,2.34l2.67,5-1,.52L89.49,5.24l1.17-.62L99.4,9.45h0l-.61-1c-.34-.58-.57-1-.71-1.25L95.44,2.11l1-.51Z"/><path class="c" d="M103.89-5l2.33-1.24,2.09,12.88L105.78,8,96.29-1l2.34-1.24,5.49,5.45c.32.32.67.7,1.07,1.15s.65.76.79,1a25.14,25.14,0,0,1-.72-2.71Z"/><path class="c" d="M120.14-6.68A6.67,6.67,0,0,1,121-1.77,5.6,5.6,0,0,1,118,1.72a5.67,5.67,0,0,1-4.63.59,6.74,6.74,0,0,1-3.55-3.46A6.69,6.69,0,0,1,108.92-6,5.7,5.7,0,0,1,112-9.51a5.57,5.57,0,0,1,4.62-.59A6.7,6.7,0,0,1,120.14-6.68Zm-8,4.23a5.19,5.19,0,0,0,2.23,2.38,2.75,2.75,0,0,0,2.57-.18c1.84-1,2.12-2.69.82-5.15S114.87-8.59,113-7.62a2.78,2.78,0,0,0-1.58,2,5.13,5.13,0,0,0,.76,3.17Z"/><path class="c" d="M39.89,66.42,38.72,67,30,62.18H29.9c.52.84,1,1.62,1.37,2.34l2.66,5-1,.5-4.7-8.85,1.16-.61,8.75,4.84h0c-.07-.1-.27-.44-.61-1s-.58-1-.71-1.25l-2.69-5.07,1-.51Z"/><path class="c" d="M42.68,51l2.37-1.24,2,12.87-2.53,1.34-9.48-9,2.33-1.23,5.5,5.4c.31.32.67.71,1.06,1.15s.65.76.79.94a19.26,19.26,0,0,1-.68-2.69Z"/><path class="c" d="M59,49.29a6.71,6.71,0,0,1,.87,4.87,5.66,5.66,0,0,1-3.08,3.5,5.64,5.64,0,0,1-4.62.59,6.75,6.75,0,0,1-3.56-3.47,6.57,6.57,0,0,1-.86-4.87,5.73,5.73,0,0,1,3.1-3.49,5.62,5.62,0,0,1,4.61-.59A6.69,6.69,0,0,1,59,49.29Zm-8,4.22a5.17,5.17,0,0,0,2.15,2.38,2.77,2.77,0,0,0,2.58-.17c1.84-1,2.11-2.7.81-5.14s-2.88-3.21-4.71-2.23a2.77,2.77,0,0,0-1.59,2A5.19,5.19,0,0,0,51,53.51Z"/><path class="c" d="M64.08,53.57l-5.77-10.9,2.31-1.23,5.79,10.91Z"/><path class="c" d="M75.18,40.57a6.09,6.09,0,0,1,.65,4.94,7,7,0,0,1-3.67,3.78l-3.08,1.64L63.29,40l3.43-1.83a6.55,6.55,0,0,1,4.89-.79A5.88,5.88,0,0,1,75.18,40.57Zm-2.37,1.34c-1.25-2.34-2.9-3-5-1.87l-1.23.65,3.76,7.1,1-.53Q74.71,45.49,72.81,41.91Z"/><path class="c" d="M85.61,36.47a5.52,5.52,0,0,1,.7,3.91A4.24,4.24,0,0,1,84,43.18a4.34,4.34,0,0,1-3.65.41,5.58,5.58,0,0,1-2.85-2.81,5.45,5.45,0,0,1-.71-3.92,4.32,4.32,0,0,1,2.39-2.79,4.27,4.27,0,0,1,3.62-.37A5.52,5.52,0,0,1,85.61,36.47Zm-7,3.74a4.83,4.83,0,0,0,2.21,2.32,3.55,3.55,0,0,0,4.44-2.31v0a4.84,4.84,0,0,0-.69-3.13,4.82,4.82,0,0,0-2.19-2.31,3,3,0,0,0-2.7.25,3.06,3.06,0,0,0-1.74,2.11,4.7,4.7,0,0,0,.62,3.11Z"/><path class="c" d="M92.19,30.63a2.8,2.8,0,0,1,.18,2.56,4.71,4.71,0,0,1-2.26,2.08l-1,.55L91,39.3l-1,.55L85.26,31l2.29-1.22C89.73,28.64,91.27,28.92,92.19,30.63ZM88.62,35l.92-.49A4.05,4.05,0,0,0,91.3,33a1.87,1.87,0,0,0-.14-1.72,1.74,1.74,0,0,0-1.27-1,3.39,3.39,0,0,0-2,.52l-1.15.62Z"/><path class="c" d="M102.12,33.4,97.19,36,92.5,27.16l4.93-2.61.48.91L94,27.53l1.51,2.85,3.67-1.94.48.9-3.67,2,1.73,3.25,3.91-2.07Z"/><path class="c" d="M110.82,28.78l-1.17.62-8.77-4.86h0c.53.84,1,1.62,1.37,2.34l2.66,5-1,.5L99.22,23.6l1.16-.61,8.75,4.83h0c-.07-.1-.27-.44-.61-1s-.58-1-.7-1.25l-2.7-5.08,1-.51Z"/><path class="c" d="M113.61,13.32,116,12.08,118,25l-2.52,1.3L106,17.35l2.34-1.24,5.49,5.4c.31.32.67.7,1.06,1.16s.67.76.8.94A21.21,21.21,0,0,1,115,20.9Z"/><path class="c" d="M129.89,11.65a6.64,6.64,0,0,1,.87,4.88A5.62,5.62,0,0,1,127.68,20a5.6,5.6,0,0,1-4.62.59,6.73,6.73,0,0,1-3.56-3.46,6.63,6.63,0,0,1-.85-4.88,5.7,5.7,0,0,1,3.09-3.48,5.64,5.64,0,0,1,4.62-.55A6.69,6.69,0,0,1,129.89,11.65Zm-8,4.23a5.16,5.16,0,0,0,2.27,2.37,2.74,2.74,0,0,0,2.56-.18c1.84-1,2.11-2.69.81-5.15s-2.87-3.19-4.71-2.22a2.81,2.81,0,0,0-1.59,2,5.21,5.21,0,0,0,.71,3.18Z"/><path class="c" d="M135,15.94,129.24,5l2.31-1.23,5.79,10.92Z"/><path class="c" d="M146.11,2.93a6.15,6.15,0,0,1,.66,4.95,7.08,7.08,0,0,1-3.67,3.77L140,13.29l-5.78-10.9L137.65.57a6.53,6.53,0,0,1,4.9-.79A5.88,5.88,0,0,1,146.11,2.93Zm-2.37,1.3c-1.24-2.34-2.9-3-5-1.87L137.5,3l3.78,7.11,1-.53C144.53,8.45,145,6.66,143.74,4.23Z"/><path class="c" d="M156.54-1.16a5.39,5.39,0,0,1,.7,3.9,4.23,4.23,0,0,1-2.34,2.81,4.32,4.32,0,0,1-3.64.41,5.62,5.62,0,0,1-2.86-2.82,5.52,5.52,0,0,1-.71-3.91,4.36,4.36,0,0,1,2.4-2.8,4.28,4.28,0,0,1,3.61-.37A5.47,5.47,0,0,1,156.54-1.16Zm-7,3.73a4.75,4.75,0,0,0,2.21,2.32,3,3,0,0,0,2.72-.25,3,3,0,0,0,1.71-2.1,4.75,4.75,0,0,0-.69-3.12,4.75,4.75,0,0,0-2.18-2.31,3,3,0,0,0-2.7.25,3.08,3.08,0,0,0-1.75,2.11,4.69,4.69,0,0,0,.64,3.1Z"/><path class="c" d="M163.12-7a2.77,2.77,0,0,1,.18,2.55,4.73,4.73,0,0,1-2.23,2.12l-1,.55,1.84,3.47-1,.55-4.73-8.85,2.27-1.17Q161.75-9.58,163.12-7Zm-3.56,4.34.92-.49a3.94,3.94,0,0,0,1.71-1.5,1.86,1.86,0,0,0-.14-1.74,1.71,1.71,0,0,0-1.27-1,3.34,3.34,0,0,0-2,.52l-1.15.61Z"/><path class="c" d="M84.91,58.91a6.07,6.07,0,0,1,.65,4.93,7.1,7.1,0,0,1-3.66,3.79l-3.1,1.68L73,58.36l3.42-1.82a6.58,6.58,0,0,1,4.9-.8A5.93,5.93,0,0,1,84.91,58.91Zm-2.37,1.33c-1.24-2.34-2.91-3-5-1.87L76.3,59l3.79,7.1,1-.53C83.33,64.41,83.81,62.63,82.54,60.24Z"/><path class="c" d="M95.34,54.8a5.55,5.55,0,0,1,.7,3.92,4.25,4.25,0,0,1-2.34,2.79,4.35,4.35,0,0,1-3.65.41,5.56,5.56,0,0,1-2.86-2.81,5.5,5.5,0,0,1-.71-3.92,4.37,4.37,0,0,1,2.39-2.79A4.33,4.33,0,0,1,92.5,52,5.52,5.52,0,0,1,95.34,54.8Zm-7,3.75a4.75,4.75,0,0,0,2.22,2.31A3.54,3.54,0,0,0,95,58.53v0a4.85,4.85,0,0,0-.7-3.13,4.79,4.79,0,0,0-2.18-2.31,3,3,0,0,0-2.71.25,3.11,3.11,0,0,0-1.74,2.11,4.8,4.8,0,0,0,.63,3.12Z"/><path class="c" d="M101.92,49a2.83,2.83,0,0,1,.18,2.55,4.73,4.73,0,0,1-2.24,2.11l-1,.55,1.85,3.49-1,.54L95,49.37l2.29-1.22Q100.56,46.4,101.92,49Zm-3.56,4.32.92-.49A3.81,3.81,0,0,0,101,51.29a1.83,1.83,0,0,0-.14-1.74,1.71,1.71,0,0,0-1.26-1,3.39,3.39,0,0,0-2,.52l-1.15.61Z"/><path class="c" d="M111.85,51.73l-4.93,2.61-4.69-8.84,4.9-2.62.49.92-3.91,2.06,1.51,2.86,3.67-1.95.48.9-3.67,2,1.73,3.25,3.9-2.07Z"/><path class="c" d="M120.55,47.11l-1.17.62-8.78-4.85h0c.52.84,1,1.62,1.36,2.34l2.67,5-.95.5L109,41.88l1.14-.6,8.75,4.83h0l-.61-1c-.34-.56-.57-1-.7-1.25l-2.7-5.08,1-.51Z"/><path class="c" d="M123.34,31.66l2.34-1.25,2.08,12.87-2.52,1.34-9.49-8.95,2.33-1.23,5.49,5.4c.33.32.68.71,1.08,1.15s.65.76.79.94a20.64,20.64,0,0,1-.72-2.7Z"/><path class="c" d="M139.62,30a6.74,6.74,0,0,1,.87,4.88,5.62,5.62,0,0,1-3.08,3.49,5.55,5.55,0,0,1-4.61.59,6.68,6.68,0,0,1-3.57-3.46,6.68,6.68,0,0,1-.86-4.88,5.71,5.71,0,0,1,3.1-3.48,5.62,5.62,0,0,1,4.61-.59A6.67,6.67,0,0,1,139.62,30Zm-8,4.23a5.14,5.14,0,0,0,2.16,2.38,2.73,2.73,0,0,0,2.56-.17q2.83-1.47.83-5.15T132.46,29a2.78,2.78,0,0,0-1.6,2,5.18,5.18,0,0,0,.8,3.16Z"/><path class="c" d="M144.75,34.27,139,23.37l2.32-1.24,5.78,10.92Z"/><path class="c" d="M155.84,21.25a6.07,6.07,0,0,1,.65,4.95A7,7,0,0,1,152.83,30l-3.09,1.65L144,20.71l3.42-1.82a6.58,6.58,0,0,1,4.9-.79A5.9,5.9,0,0,1,155.84,21.25Zm-2.37,1.35c-1.24-2.35-2.9-3-5-1.88l-1.23.65L151,28.48l1-.53c2.25-1.17,2.74-3,1.47-5.34Z"/><path class="c" d="M166.27,17.17a5.58,5.58,0,0,1,.71,3.91,4.31,4.31,0,0,1-2.35,2.8,4.34,4.34,0,0,1-3.65.41,5.48,5.48,0,0,1-2.79-2.82,5.42,5.42,0,0,1-.73-3.91,4.35,4.35,0,0,1,2.41-2.79,4.21,4.21,0,0,1,3.61-.37A5.43,5.43,0,0,1,166.27,17.17Zm-7,3.74a4.68,4.68,0,0,0,2.17,2.35,3.55,3.55,0,0,0,4.44-2.33v0a4.76,4.76,0,0,0-.7-3.12A4.75,4.75,0,0,0,163,15.47a3,3,0,0,0-2.7.25,3,3,0,0,0-1.74,2.11,4.68,4.68,0,0,0,.63,3.08Z"/><path class="c" d="M172.85,11.33a2.79,2.79,0,0,1,.18,2.56A4.68,4.68,0,0,1,170.79,16l-1,.55L171.64,20l-1,.54-4.7-8.84,2.26-1.22C170.39,9.34,171.94,9.62,172.85,11.33Zm-3.56,4.34.92-.49a3.79,3.79,0,0,0,1.74-1.5,1.83,1.83,0,0,0-.14-1.74,1.74,1.74,0,0,0-1.26-1,3.43,3.43,0,0,0-2,.52l-1.15.61Z"/><path class="c" d="M182.78,14.1l-4.93,2.61L173.2,7.87l4.89-2.63.49.92-3.91,2.08,1.54,2.84,3.66-1.94.48.9-3.66,2,1.7,3.26,3.9-2.08Z"/><path class="c" d="M191.48,9.48l-1.17.62-8.78-4.86h0c.52.84,1,1.62,1.36,2.34l2.68,5-.95.5-4.7-8.85,1.16-.61,8.75,4.84h0l-.61-1c-.34-.57-.57-1-.7-1.25l-2.69-5.07,1-.51Z"/><path class="c" d="M194.28-6l2.33-1.24,2.08,12.88L196.17,7l-9.49-8.95L189-3.18l5.49,5.41c.32.32.68.71,1.07,1.15s.65.76.79.94a19.37,19.37,0,0,1-.71-2.69Z"/><path class="c" d="M210.56-7.65a6.73,6.73,0,0,1,.87,4.88A5.66,5.66,0,0,1,208.34.72a5.62,5.62,0,0,1-4.61.59,6.78,6.78,0,0,1-3.57-3.46A6.69,6.69,0,0,1,199.3-7a5.67,5.67,0,0,1,3.11-3.48,5.56,5.56,0,0,1,4.6-.59A6.69,6.69,0,0,1,210.56-7.65Zm-8,4.22A5.14,5.14,0,0,0,204.75-1a2.76,2.76,0,0,0,2.56-.17c1.85-1,2.13-2.7.82-5.15s-2.87-3.19-4.7-2.23a2.77,2.77,0,0,0-1.59,2A5.09,5.09,0,0,0,202.6-3.43Z"/><path class="c" d="M130.28,65.45l-1.18.62-8.77-4.86h0c.53.84,1,1.62,1.37,2.35l2.67,5-1,.5-4.68-8.77,1.16-.62,8.74,4.83h0c-.07-.1-.27-.44-.61-1a14.32,14.32,0,0,1-.7-1.26l-2.69-5.07,1-.51Z"/><path class="c" d="M133.07,50l2.34-1.24,2.07,12.87L135,63,125.48,54l2.33-1.24,5.5,5.4c.32.33.67.71,1.06,1.15s.66.76.79.94a22.65,22.65,0,0,1-.71-2.69Z"/><path class="c" d="M149.35,48.29a6.73,6.73,0,0,1,.83,4.9,6.59,6.59,0,0,1-7.66,4.11A6.71,6.71,0,0,1,139,53.83,6.57,6.57,0,0,1,138.1,49a6.66,6.66,0,0,1,7.71-4.08A6.74,6.74,0,0,1,149.35,48.29Zm-8,4.22a5,5,0,0,0,2.15,2.38,2.73,2.73,0,0,0,2.56-.17q2.76-1.47.81-5.14t-4.7-2.23a2.76,2.76,0,0,0-1.59,2,5.11,5.11,0,0,0,.82,3.18Z"/><path class="c" d="M154.48,52.61,148.69,41.7,151,40.48l5.78,10.9Z"/><path class="c" d="M165.56,39.61a6,6,0,0,1,.66,4.93,7.12,7.12,0,0,1-3.67,3.75l-3.08,1.63-5.79-10.87,3.42-1.78a6.63,6.63,0,0,1,4.9-.79A5.87,5.87,0,0,1,165.56,39.61Zm-2.37,1.33c-1.24-2.35-2.91-3-5-1.88l-1.24.67,3.78,7.09,1-.53Q165.09,44.52,163.19,40.94Z"/><path class="c" d="M176,35.5a5.54,5.54,0,0,1,.69,3.92,4.27,4.27,0,0,1-2.35,2.8,4.32,4.32,0,0,1-3.64.4,5.58,5.58,0,0,1-2.85-2.81,5.5,5.5,0,0,1-.71-3.92,4.35,4.35,0,0,1,2.39-2.79,4.31,4.31,0,0,1,3.62-.37A5.58,5.58,0,0,1,176,35.5ZM169,39.27a4.77,4.77,0,0,0,2.25,2.29,3.07,3.07,0,0,0,2.72-.25,3,3,0,0,0,1.73-2.11,4.77,4.77,0,0,0-.7-3.12,4.75,4.75,0,0,0-2.18-2.31,3,3,0,0,0-2.7.25,3,3,0,0,0-1.74,2.11A4.66,4.66,0,0,0,169,39.27Z"/><path class="c" d="M182.58,29.66a2.83,2.83,0,0,1,.18,2.56,4.73,4.73,0,0,1-2.24,2.11l-1,.55,1.84,3.48-1,.54-4.75-8.84,2.29-1.22C180.11,27.67,181.67,28,182.58,29.66ZM179,34l.93-.49A3.83,3.83,0,0,0,181.68,32a1.85,1.85,0,0,0-.14-1.75,1.71,1.71,0,0,0-1.27-1,3.53,3.53,0,0,0-2,.52l-1.14.61Z"/><path class="c" d="M192.52,32.43,187.58,35l-4.7-8.84,4.94-2.62.48.92-3.9,2.07,1.51,2.84,3.67-1.94.48.91-3.67,1.94,1.73,3.26,3.9-2.07Z"/><path class="c" d="M201.24,27.81l-1.19.62-8.83-4.85h0c.53.84,1,1.62,1.38,2.35l2.66,5-1,.5-4.69-8.84,1.16-.63,8.74,4.84h.05c-.07-.1-.27-.44-.61-1s-.58-1-.7-1.25l-2.69-5.08,1-.51Z"/><path class="c" d="M204,12.35l2.34-1.24L208.41,24l-2.52,1.34-9.48-8.95,2.33-1.23,5.5,5.39c.32.33.67.71,1.06,1.15s.66.77.79.95a23.33,23.33,0,0,1-.71-2.7Z"/><path class="c" d="M220.26,10.68a6.78,6.78,0,0,1,.86,4.88,5.64,5.64,0,0,1-3.07,3.5,5.67,5.67,0,0,1-4.63.58,6.61,6.61,0,0,1-3.55-3.46A6.63,6.63,0,0,1,209,11.3a5.71,5.71,0,0,1,3.1-3.48,5.61,5.61,0,0,1,4.64-.58A6.72,6.72,0,0,1,220.26,10.68Zm-8,4.23a5.15,5.15,0,0,0,2.18,2.34,2.73,2.73,0,0,0,2.56-.17c1.85-1,2.12-2.7.83-5.15s-2.88-3.2-4.72-2.22a2.7,2.7,0,0,0-1.58,2,5.09,5.09,0,0,0,.76,3.2Z"/><path class="c" d="M225.41,15,219.63,4.06l2.31-1.22,5.79,10.91Z"/><path class="c" d="M236.5,2a6.13,6.13,0,0,1,.66,4.94,7.16,7.16,0,0,1-3.68,3.78l-3.08,1.63-5.79-10.9L228-.4a6.55,6.55,0,0,1,4.89-.79A5.85,5.85,0,0,1,236.5,2ZM234.13,3.3c-1.25-2.34-2.9-3-5-1.87l-1.23.66,3.8,7.15,1-.53Q236,6.88,234.13,3.3Z"/><path class="c" d="M164.19,70.94,158.41,60l2.31-1.22,5.79,10.9Z"/><path class="c" d="M175.3,57.94a6,6,0,0,1,.65,4.93,7.05,7.05,0,0,1-3.67,3.79l-3.08,1.65-5.79-10.9,3.43-1.82a6.5,6.5,0,0,1,4.89-.79A5.88,5.88,0,0,1,175.3,57.94Zm-2.38,1.36c-1.24-2.34-2.9-3-5-1.86l-1.23.65,3.76,7.1,1-.53Q174.84,62.86,172.92,59.3Z"/><path class="c" d="M185.73,53.83a5.6,5.6,0,0,1,.7,3.92,4.91,4.91,0,0,1-6,3.2,5.54,5.54,0,0,1-2.84-2.8,5.5,5.5,0,0,1-.72-3.92,4.38,4.38,0,0,1,2.4-2.8,4.25,4.25,0,0,1,3.61-.36A5.5,5.5,0,0,1,185.73,53.83Zm-7,3.75a4.75,4.75,0,0,0,2.21,2.32,3.11,3.11,0,0,0,2.72-.25,3,3,0,0,0,1.73-2.11,4.85,4.85,0,0,0-.7-3.13,4.73,4.73,0,0,0-2.19-2.31,3.54,3.54,0,0,0-4.43,2.34v0a4.7,4.7,0,0,0,.63,3.11Z"/><path class="c" d="M192.31,48a2.77,2.77,0,0,1,.18,2.55,4.62,4.62,0,0,1-2.27,2.11l-1,.55,1.85,3.49-1,.55-4.69-8.85,2.29-1.23C189.83,46,191.39,46.28,192.31,48Zm-3.57,4.29.92-.49a3.83,3.83,0,0,0,1.74-1.49,1.8,1.8,0,0,0-.14-1.74,1.75,1.75,0,0,0-1.26-1,3.46,3.46,0,0,0-2,.53l-1.15.61Z"/><path class="c" d="M202.24,50.76l-4.93,2.62-4.69-8.85,4.92-2.61.49.91-3.9,2.07,1.51,2.84,3.66-1.94.48.91-3.66,1.95,1.73,3.25,3.9-2.07Z"/><path class="c" d="M210.94,46.14l-1.17.62L201,41.91h0c.52.83,1,1.61,1.36,2.34l2.67,5-1,.5-4.7-8.84,1.16-.62,8.76,4.88h.05l-.62-1c-.35-.58-.58-1-.71-1.25l-2.73-5.12,1-.51Z"/><path class="c" d="M213.73,30.68l2.33-1.24,2.09,12.84-2.53,1.34-9.49-8.94,2.34-1.24,5.5,5.4c.31.32.67.71,1.06,1.15a7.26,7.26,0,0,1,.79,1,21.17,21.17,0,0,1-.71-2.71Z"/><path class="c" d="M230,29a6.71,6.71,0,0,1,.87,4.87,5.63,5.63,0,0,1-3.08,3.5,5.61,5.61,0,0,1-4.62.58,6.66,6.66,0,0,1-3.56-3.46,6.56,6.56,0,0,1-.86-4.87,5.63,5.63,0,0,1,3.1-3.48,5.6,5.6,0,0,1,4.62-.6A6.78,6.78,0,0,1,230,29Zm-8,4.22a5.25,5.25,0,0,0,2.15,2.39,2.76,2.76,0,0,0,2.57-.18c1.84-1,2.12-2.7.82-5.15s-2.87-3.19-4.71-2.22a2.79,2.79,0,0,0-1.59,2,5.13,5.13,0,0,0,.81,3.19Z"/><path class="c" d="M235.15,33.27l-5.79-10.91,2.31-1.23L237.46,32Z"/><path class="c" d="M246.23,20.3a6,6,0,0,1,.65,4.94A7,7,0,0,1,243.21,29l-3.08,1.63-5.79-10.9,3.43-1.81a6.46,6.46,0,0,1,4.89-.79A5.84,5.84,0,0,1,246.23,20.3Zm-2.37,1.33c-1.25-2.34-2.91-3-5-1.86l-1.23.65,3.76,7.1,1-.52C244.65,25.81,245.13,24,243.86,21.63Z"/><path class="c" d="M220.67,64.47l-1.18.64-8.77-4.87h-.05c.53.83,1,1.61,1.37,2.34l2.66,5-.94.51-4.7-8.8,1.17-.62L219,63.51h0l-.61-1c-.34-.58-.57-1-.71-1.25L215,56.18l1-.51Z"/><path class="c" d="M223.46,49l2.33-1.24,2.08,12.88L225.35,62l-9.49-8.94,2.34-1.24,5.49,5.41c.32.32.67.7,1.06,1.15s.66.76.8.94a25.59,25.59,0,0,1-.72-2.7Z"/><path class="c" d="M239.74,47.35a6.69,6.69,0,0,1,.86,4.88,6.58,6.58,0,0,1-7.7,4.06,6.71,6.71,0,0,1-3.55-3.46,6.66,6.66,0,0,1-.86-4.87,5.72,5.72,0,0,1,3.09-3.49,5.61,5.61,0,0,1,4.62-.59A6.71,6.71,0,0,1,239.74,47.35Zm-8,4.23A5.17,5.17,0,0,0,233.88,54a2.75,2.75,0,0,0,2.57-.18c1.84-1,2.12-2.69.82-5.14s-2.88-3.2-4.72-2.23a2.77,2.77,0,0,0-1.58,2,5.13,5.13,0,0,0,.81,3.16Z"/></g></svg>