<svg width="40" height="40" fill="none" xmlns="http://www.w3.org/2000/svg"><path d="M29.956 19.404c-.029-.066-.734-1.63-2.308-3.204C26.188 14.74 23.676 13 20 13c-3.676 0-6.188 1.74-7.648 3.2-1.574 1.574-2.279 3.139-2.308 3.204a.508.508 0 000 .413c.029.066.734 1.63 2.308 3.204 1.46 1.46 3.972 3.2 7.648 3.2 3.676 0 6.188-1.74 7.648-3.2 1.574-1.574 2.279-3.138 2.308-3.204a.509.509 0 000-.413zM20 25.204c-2.66 0-4.981-.968-6.902-2.876a11.416 11.416 0 01-2.023-2.717 11.416 11.416 0 012.023-2.718c1.92-1.909 4.243-2.876 6.902-2.876 2.66 0 4.981.967 6.902 2.876.806.8 1.487 1.716 2.022 2.717-.54 1.034-3.243 5.593-8.924 5.593zm0-9.492a3.899 3.899 0 100 7.798 3.899 3.899 0 000-7.798zm0 6.78a2.88 2.88 0 110-5.76 2.88 2.88 0 010 5.76z" fill="#757575"/></svg>