<svg width="28" height="28" fill="none" xmlns="http://www.w3.org/2000/svg"><g clip-path="url(#clip0)" fill="#14A5DA"><path d="M14.09 1a6.5 6.5 0 100 13 6.5 6.5 0 000-13zm0 9.75a3.25 3.25 0 110-6.5 3.25 3.25 0 010 6.5z"/><path d="M22.713 13.82a1.624 1.624 0 00-2.298 0 8.95 8.95 0 01-12.64 0 1.626 1.626 0 00-2.298 2.3 12.113 12.113 0 007.226 3.475L8.07 24.23a1.625 1.625 0 102.298 2.298l3.727-3.727 3.727 3.727a1.625 1.625 0 102.298-2.299l-4.633-4.633a12.113 12.113 0 007.226-3.475 1.627 1.627 0 000-2.3z"/></g><defs><clipPath id="clip0"><path fill="#fff" transform="translate(5 1)" d="M0 0h18.188v26H0z"/></clipPath></defs></svg>