<svg width="40" height="40" fill="none" xmlns="http://www.w3.org/2000/svg"><g clip-path="url(#clip0)"><path fill-rule="evenodd" clip-rule="evenodd" d="M27.215 21.201a14.46 14.46 0 011.996 1.996c.28.312.514.663.694 1.041.26.52 0 1.128-.434 1.128l-2.95-.087a2.014 2.014 0 01-1.822-.78c-.4-.412-.777-.847-1.128-1.302a2.299 2.299 0 00-.52-.434c-.434-.26-.781-.173-.955.26a3.637 3.637 0 00-.347 1.389c0 .694-.26.867-.954.867a7.697 7.697 0 01-4.165-.867 9.934 9.934 0 01-2.777-2.603 35.629 35.629 0 01-3.73-6.595c-.261-.52-.088-.78.52-.867h2.863a.929.929 0 01.781.607 15.48 15.48 0 001.909 3.558c.213.328.477.62.78.867.348.26.608.174.782-.26 0-.26.087-.52.087-.78.087-.866.087-1.738 0-2.604a1.102 1.102 0 00-.955-.954c-.26-.087-.26-.174-.087-.348a.955.955 0 01.868-.433h3.297c.52.086.608.347.694.867v3.645c0 .173.087.78.434.954.347.174.52-.174.694-.347a10.024 10.024 0 001.822-2.863 9.63 9.63 0 00.608-1.389.755.755 0 01.78-.52h3.385c.52.087.694.347.52.867a10.66 10.66 0 01-1.215 2.17c-.52.694-1.128 1.475-1.648 2.169a1.077 1.077 0 00.173 1.648z" fill="#757575"/></g><defs><clipPath id="clip0"><path fill="#fff" transform="translate(10 14)" d="M0 0h20v11.367H0z"/></clipPath></defs></svg>