<svg width="40" height="40" fill="none" xmlns="http://www.w3.org/2000/svg"><path d="M28.038 22.72a.626.626 0 11-1.082.625l-1.436-2.488a9.651 9.651 0 01-2.757 1.272l.454 2.575a.625.625 0 01-1.231.218l-.447-2.534a10.63 10.63 0 01-3.085 0l-.447 2.532a.625.625 0 01-1.23-.217l.453-2.576a9.654 9.654 0 01-2.753-1.272l-1.444 2.502a.627.627 0 01-.858.236.625.625 0 01-.225-.86l1.523-2.64a11.543 11.543 0 01-1.46-1.507.624.624 0 11.973-.785 10.05 10.05 0 001.66 1.634l.014.011A8.562 8.562 0 0020 21.25a8.562 8.562 0 005.339-1.803l.012-.01a10.059 10.059 0 001.663-1.636.625.625 0 01.972.785 11.41 11.41 0 01-1.463 1.51l1.515 2.624z" fill="#757575"/></svg>