<svg fill="none" viewBox="0 0 28 28" xmlns="http://www.w3.org/2000/svg"><g clip-path="url(#a)" fill="#14A5DA"><path d="M19.825 1H8.175A7.183 7.183 0 001 8.175v11.65A7.184 7.184 0 008.175 27h11.65A7.184 7.184 0 0027 19.825V8.175A7.183 7.183 0 0019.825 1zm4.876 18.825a4.876 4.876 0 01-4.876 4.876H8.175a4.876 4.876 0 01-4.868-4.876V8.175a4.876 4.876 0 014.868-4.876h11.65a4.876 4.876 0 014.876 4.876v11.65z"/><path d="M14 7.3a6.7 6.7 0 106.7 6.7A6.707 6.707 0 0014 7.3zm0 11.1a4.392 4.392 0 114.392-4.392A4.397 4.397 0 0114 18.392v.007zm6.98-13.055a1.69 1.69 0 10.006 3.38 1.69 1.69 0 00-.006-3.38z"/></g><defs><clipPath id="a"><path transform="translate(1 1)" fill="#fff" d="M0 0h26v26H0z"/></clipPath></defs></svg>