<svg width="81" height="27" fill="none" xmlns="http://www.w3.org/2000/svg"><path d="M.475 25.588v-.666h.81c.708 0 1.248-.108 1.62-.325.384-.228.666-.534.846-.918.108-.252.162-1.008.162-2.268V5.354c0-1.249-.066-2.029-.198-2.34-.132-.313-.402-.583-.81-.81-.396-.24-.936-.36-1.62-.36h-.81v-.667h10.927c2.916 0 5.262.396 7.038 1.188 2.173.972 3.817 2.443 4.933 4.41 1.128 1.969 1.692 4.195 1.692 6.68 0 1.716-.276 3.3-.828 4.752-.552 1.44-1.266 2.634-2.142 3.582a10.67 10.67 0 01-3.043 2.268c-1.14.565-2.538 1.003-4.194 1.315-.732.144-1.884.216-3.456.216H.475zM9.782 2.563V21.61c0 1.008.048 1.626.144 1.854.096.228.258.402.486.522.324.18.792.27 1.404.27 2.004 0 3.534-.684 4.59-2.052 1.44-1.848 2.16-4.716 2.16-8.605 0-3.132-.492-5.634-1.476-7.506-.78-1.464-1.782-2.46-3.006-2.989-.864-.372-2.298-.552-4.302-.54zM44.201 17.27l6.625-16.093h9.937v.666h-.792c-.72 0-1.297.126-1.729.378-.3.168-.54.45-.72.846-.132.288-.198 1.038-.198 2.25v16.094c0 1.248.066 2.028.198 2.34.132.313.402.588.81.828.408.229.954.343 1.639.343h.792v.666H48.017v-.666h.792c.72 0 1.297-.126 1.729-.378.3-.169.54-.457.72-.865.132-.288.198-1.044.198-2.268V3.32l-9.361 22.269h-.432L32.158 3.48v17.192c0 1.2.03 1.938.09 2.214a2.62 2.62 0 001.008 1.476c.528.373 1.35.559 2.466.559v.666H27.37v-.666h.252a3.928 3.928 0 001.513-.253c.468-.192.822-.444 1.062-.756.24-.312.426-.75.558-1.314.024-.132.036-.744.036-1.836V5.318c0-1.237-.066-2.005-.198-2.305-.132-.312-.402-.582-.81-.81-.409-.24-.955-.36-1.639-.36h-.774v-.666h9.973l6.859 16.094zM78.764.62l.199 8.136h-.739c-.348-2.04-1.206-3.678-2.574-4.915-1.356-1.248-2.826-1.872-4.41-1.872-1.224 0-2.197.33-2.917.99-.708.648-1.062 1.399-1.062 2.25 0 .54.126 1.02.378 1.44.348.565.906 1.123 1.675 1.675.564.396 1.866 1.098 3.906 2.106 2.856 1.404 4.782 2.73 5.779 3.979.984 1.248 1.476 2.676 1.476 4.284 0 2.04-.798 3.798-2.395 5.274-1.584 1.465-3.6 2.197-6.048 2.197a9.777 9.777 0 01-2.178-.234c-.684-.156-1.543-.45-2.575-.882-.576-.24-1.05-.36-1.422-.36-.312 0-.642.12-.99.36s-.63.606-.846 1.098h-.666v-9.217h.666c.528 2.592 1.542 4.572 3.042 5.94 1.512 1.357 3.139 2.035 4.879 2.035 1.344 0 2.412-.366 3.204-1.099.804-.732 1.206-1.584 1.206-2.556 0-.576-.156-1.134-.468-1.674-.3-.54-.762-1.05-1.386-1.53-.624-.492-1.728-1.128-3.312-1.908-2.22-1.092-3.817-2.023-4.789-2.79-.972-.769-1.722-1.627-2.25-2.575-.516-.948-.774-1.992-.774-3.132 0-1.944.714-3.6 2.142-4.969C66.943 1.303 68.743.62 70.915.62c.793 0 1.56.096 2.305.288.564.144 1.248.414 2.052.81.816.384 1.386.576 1.71.576.312 0 .558-.096.738-.288.18-.192.348-.654.504-1.386h.54z" fill="#195676"/></svg>