<svg id="Layer_1" data-name="Layer 1" xmlns="http://www.w3.org/2000/svg" xmlns:xlink="http://www.w3.org/1999/xlink" viewBox="0 0 66 100"><defs><style>.cls-1{fill:none;}.cls-2{clip-path:url(#clip-path); fill:#4182B9;}</style><clipPath id="clip-path" transform="translate(5 4.64)"><path class="cls-1" d="M6,68.36H50v9a6.92,6.92,0,0,1-7,7H13a6.92,6.92,0,0,1-7-7Zm0-22H50v16H6Zm7.37-22H42.62a14.26,14.26,0,0,1,5.44,2.16A4.23,4.23,0,0,1,50,30.36v10H6v-10a4.22,4.22,0,0,1,1.94-3.84A14.21,14.21,0,0,1,13.37,24.36ZM15,6.36H41a3.85,3.85,0,0,1,2,3v9H13v-9A3.85,3.85,0,0,1,15,6.36Zm0-6c-4.63,0-8,4.11-8,9V20.17a15.38,15.38,0,0,0-2.69,1.6A10.86,10.86,0,0,0,0,30.36v35a1.6,1.6,0,0,0,0,.31V77.36a13,13,0,0,0,13,13H43a13,13,0,0,0,13-13V65.58a.81.81,0,0,0,0-.22v-22a1.31,1.31,0,0,0,0-.28V30.36a10.86,10.86,0,0,0-4.31-8.59A15,15,0,0,0,49,20.17V9.36c0-4.89-3.37-9-8-9Z"/></clipPath></defs><title>home-icon-6</title><g class="cls-2"><rect width="66" height="100"/></g></svg>