<svg xmlns="http://www.w3.org/2000/svg" viewBox="680.768 827.336 36.567 20.881"><defs><style>.a{fill:#ee365d;}</style></defs><path class="a" d="M36.375,18.7c-.047-.093-.087-.173-.127-.24a18.971,18.971,0,0,0-3.634-4.208l-.04-.04-.02-.02-.02-.02h-.02a20.952,20.952,0,0,1-1.54-1.56,1.468,1.468,0,0,1-.267-1.54,14.533,14.533,0,0,1,1.714-2.494q.78-1.01,1.24-1.62,3.291-4.381,2.854-5.595L36.4,1.179a1.1,1.1,0,0,0-.587-.313,2.985,2.985,0,0,0-1.22-.047l-5.481.04a.732.732,0,0,0-.38.007l-.247.06-.093.047-.073.06a.815.815,0,0,0-.207.2,1.236,1.236,0,0,0-.187.333,30.975,30.975,0,0,1-2.04,4.281c-.467.787-.9,1.467-1.294,2.047a9.662,9.662,0,0,1-.987,1.274,5.965,5.965,0,0,1-.727.653c-.213.167-.38.233-.493.207s-.22-.053-.327-.073a1.2,1.2,0,0,1-.427-.467,2.2,2.2,0,0,1-.22-.74,7.583,7.583,0,0,1-.067-.774c-.007-.213,0-.52.007-.914s.02-.66.02-.8c0-.48.007-1.007.027-1.574s.033-1.014.047-1.34.02-.68.02-1.047a4.261,4.261,0,0,0-.067-.867,3.235,3.235,0,0,0-.2-.607A1.058,1.058,0,0,0,20.8.365a2.372,2.372,0,0,0-.64-.26A12.609,12.609,0,0,0,17.6-.141a12.345,12.345,0,0,0-4.548.46,2.442,2.442,0,0,0-.72.573c-.227.28-.26.433-.093.46a2.339,2.339,0,0,1,1.62.82l.113.227a3.729,3.729,0,0,1,.267.874A9.261,9.261,0,0,1,14.41,4.66a15.65,15.65,0,0,1,0,2.381q-.1.99-.18,1.54a2.975,2.975,0,0,1-.26.894c-.113.227-.193.367-.227.42a.3.3,0,0,1-.093.093,1.489,1.489,0,0,1-.513.093,1.18,1.18,0,0,1-.647-.267,4.356,4.356,0,0,1-.787-.734,10.205,10.205,0,0,1-.927-1.307c-.34-.56-.7-1.22-1.067-1.98L9.4,5.24c-.193-.353-.453-.874-.78-1.554S8,2.352,7.748,1.712a1.225,1.225,0,0,0-.46-.607l-.093-.06a1.06,1.06,0,0,0-.307-.16,1.963,1.963,0,0,0-.44-.127L1.234.8a1.337,1.337,0,0,0-1.087.36l-.073.113A.594.594,0,0,0,0,1.6a1.564,1.564,0,0,0,.113.513C.874,3.906,1.707,5.627,2.6,7.294s1.674,3,2.334,4.014,1.334,1.974,2.02,2.874,1.14,1.48,1.36,1.734.4.447.527.573l.473.46a11.692,11.692,0,0,0,1.34,1.094q.89.64,1.96,1.26a10.7,10.7,0,0,0,2.5,1.007,8.6,8.6,0,0,0,2.781.313h2.187a1.513,1.513,0,0,0,1.007-.42l.073-.093a1.071,1.071,0,0,0,.14-.353,1.868,1.868,0,0,0,.067-.527,5.953,5.953,0,0,1,.127-1.474,3.52,3.52,0,0,1,.327-.987,2.636,2.636,0,0,1,.407-.56,1.367,1.367,0,0,1,.327-.273.889.889,0,0,1,.153-.067,1.221,1.221,0,0,1,1.074.293,6.226,6.226,0,0,1,1.16,1.107c.36.44.794.927,1.307,1.474a8.894,8.894,0,0,0,1.334,1.22l.38.227a4.58,4.58,0,0,0,.994.42,2.1,2.1,0,0,0,1.067.093L34.9,20.63a2.168,2.168,0,0,0,1.12-.24.92.92,0,0,0,.473-.527,1.4,1.4,0,0,0,.007-.647A2.552,2.552,0,0,0,36.375,18.7Z" transform="translate(680.768 827.481)"/></svg>