<svg xmlns="http://www.w3.org/2000/svg" viewBox="621.821 824 27.006 27.006"><defs><style>.a{fill:#ee365d;fill-rule:evenodd;}</style></defs><path class="a" d="M13.5,2.4a41.4,41.4,0,0,1,5.4.15A6.959,6.959,0,0,1,21.455,3a5.269,5.269,0,0,1,2.551,2.551,6.959,6.959,0,0,1,.45,2.551c0,1.35.15,1.8.15,5.4a41.4,41.4,0,0,1-.15,5.4,6.959,6.959,0,0,1-.45,2.551,5.269,5.269,0,0,1-2.551,2.551,6.959,6.959,0,0,1-2.551.45c-1.35,0-1.8.15-5.4.15a41.4,41.4,0,0,1-5.4-.15,6.959,6.959,0,0,1-2.551-.45A5.269,5.269,0,0,1,3,21.455a6.959,6.959,0,0,1-.45-2.551c0-1.35-.15-1.8-.15-5.4a41.4,41.4,0,0,1,.15-5.4A6.959,6.959,0,0,1,3,5.551a5.388,5.388,0,0,1,1.05-1.5A2.537,2.537,0,0,1,5.551,3,6.959,6.959,0,0,1,8.1,2.551a41.4,41.4,0,0,1,5.4-.15m0-2.4A44.33,44.33,0,0,0,7.952.15a9.262,9.262,0,0,0-3.3.6,5.873,5.873,0,0,0-2.4,1.5,5.873,5.873,0,0,0-1.5,2.4,6.836,6.836,0,0,0-.6,3.3A44.33,44.33,0,0,0,0,13.5a44.33,44.33,0,0,0,.15,5.551,9.262,9.262,0,0,0,.6,3.3,5.873,5.873,0,0,0,1.5,2.4,5.873,5.873,0,0,0,2.4,1.5,9.262,9.262,0,0,0,3.3.6,44.33,44.33,0,0,0,5.551.15,44.33,44.33,0,0,0,5.551-.15,9.262,9.262,0,0,0,3.3-.6,6.295,6.295,0,0,0,3.9-3.9,9.262,9.262,0,0,0,.6-3.3c0-1.5.15-1.95.15-5.551a44.33,44.33,0,0,0-.15-5.551,9.262,9.262,0,0,0-.6-3.3,5.873,5.873,0,0,0-1.5-2.4,5.873,5.873,0,0,0-2.4-1.5,9.262,9.262,0,0,0-3.3-.6A44.33,44.33,0,0,0,13.5,0m0,6.6a6.79,6.79,0,0,0-6.9,6.9,6.9,6.9,0,1,0,6.9-6.9m0,11.4A4.421,4.421,0,0,1,9,13.5,4.421,4.421,0,0,1,13.5,9,4.421,4.421,0,0,1,18,13.5,4.421,4.421,0,0,1,13.5,18M20.7,4.651a1.65,1.65,0,1,0,1.65,1.65,1.665,1.665,0,0,0-1.65-1.65" transform="translate(621.821 824)"/></svg>