<svg xmlns="http://www.w3.org/2000/svg" viewBox="0 0 321.93 107.23"><title>Artboard 1</title><circle cx="268.32" cy="53.61" r="53.61" style="fill:#ee365d"/><path d="M21.3,55.59H5.3V70.85H23.13v4.58H0V33.12H22.22V37.7H5.31V51.07h16Z" style="fill:#231f20"/><path d="M38.82,37.76H26.31V33.12H56.76v4.65H44.19V75.44H38.82Z" style="fill:#231f20"/><path d="M66.66,33.12V75.44H61.35V33.12Z" style="fill:#231f20"/><path d="M75.93,33.12h5.31v20.4h.18c1.1-1.63,2.2-3.14,3.23-4.52L97.24,33.12h6.59l-14.89,18L105,75.44H98.7L85.15,54.65,81.24,59.3V75.44H75.93Z" style="fill:#231f20"/><path d="M130.32,55.59h-16V70.85h17.82v4.58H109V33.12h22.22V37.7H114.33V51.07h16Z" style="fill:#231f20"/><path d="M147.84,37.76H135.33V33.12h30.46v4.65H153.21V75.44h-5.37Z" style="fill:#231f20"/><path d="M170.36,33.12h5.31v20.4h.18c1.1-1.63,2.2-3.14,3.24-4.52l12.57-15.89h6.59l-14.89,18,16,24.36h-6.29L179.58,54.65l-3.91,4.65V75.44h-5.31Z" style="fill:#231f20"/><path d="M208.76,33.12V75.44h-5.31V33.12Z" style="fill:#231f20"/><path d="M233.35,32.71h9.48V51.42H243c.94-1.63,1.95-3.14,2.89-4.65l9.61-14.06h11.74l-14,18L268,75H256.84L246.48,56.76l-3.64,4.46V75h-9.48Z" style="fill:#fff"/><path d="M270.27,69.88l20.16-29v-.25H272.16V32.71h30.7v5.53L283.15,66.87v.25h20V75h-32.9Z" style="fill:#fff"/><path d="M.07,81.48a15.1,15.1,0,0,1,2.85-.25,5,5,0,0,1,3.31.88,2.53,2.53,0,0,1,1,2.13,2.88,2.88,0,0,1-2,2.65h0a3.11,3.11,0,0,1,2.49,3,3.25,3.25,0,0,1-1,2.42c-.84.77-2.2,1.13-4.17,1.13A17.76,17.76,0,0,1,.13,93.3Zm1.56,4.94H3c1.65,0,2.62-.86,2.62-2,0-1.41-1.08-2-2.65-2a7.08,7.08,0,0,0-1.38.11Zm0,5.79a8.16,8.16,0,0,0,1.31.07c1.61,0,3.1-.59,3.1-2.35S4.62,87.6,2.92,87.6H1.63Z" style="fill:#231f20"/><path d="M19,92.86a11.2,11.2,0,0,1-3.71.66,6.22,6.22,0,0,1-4.51-1.59,6.2,6.2,0,0,1-1.68-4.5c0-3.6,2.49-6.23,6.54-6.23a7.5,7.5,0,0,1,3,.55L18.24,83a6.27,6.27,0,0,0-2.67-.52,4.52,4.52,0,0,0-4.85,4.16,4,4,0,0,0,0,.69c0,3.06,1.85,4.87,4.66,4.87a5.07,5.07,0,0,0,2.08-.32v-3.6H15V87.05h4Z" style="fill:#231f20"/><path d="M21.14,91.5a5.5,5.5,0,0,0,2.79.79c1.59,0,2.53-.84,2.53-2.06s-.64-1.77-2.27-2.4c-2-.7-3.19-1.72-3.19-3.42,0-1.88,1.56-3.28,3.9-3.28a5.49,5.49,0,0,1,2.67.59L27.14,83a4.8,4.8,0,0,0-2.29-.57c-1.65,0-2.27,1-2.27,1.81,0,1.13.73,1.68,2.4,2.33,2,.79,3.08,1.77,3.08,3.55s-1.38,3.47-4.23,3.47a6.23,6.23,0,0,1-3.08-.77Z" style="fill:#231f20"/><path d="M46.23,93a7.74,7.74,0,0,1-3.19.57c-3.4,0-6-2.15-6-6.11a6,6,0,0,1,5.64-6.34c.22,0,.45,0,.67,0a6.41,6.41,0,0,1,2.87.54l-.38,1.27a5.56,5.56,0,0,0-2.44-.5c-2.83,0-4.71,1.81-4.71,5,0,3,1.7,4.85,4.64,4.85a6.33,6.33,0,0,0,2.54-.5Z" style="fill:#231f20"/><path d="M51.1,82.65H47.43V81.32h8.94v1.33H52.68V93.39H51.1Z" style="fill:#231f20"/><path d="M57.72,81.46a17.75,17.75,0,0,1,3-.23,5,5,0,0,1,3.39,1,3.24,3.24,0,0,1,1.06,2.53,3.55,3.55,0,0,1-.93,2.58,5,5,0,0,1-3.69,1.33,5.24,5.24,0,0,1-1.25-.11V93.4H57.72Zm1.56,5.82a5.09,5.09,0,0,0,1.29.13c1.88,0,3-.91,3-2.58s-1.13-2.36-2.85-2.36a6.59,6.59,0,0,0-1.47.13Z" style="fill:#231f20"/><path d="M73.5,87.73H68.81v4.35H74v1.31H67.25V81.32h6.52v1.31h-5v3.82H73.5Z" style="fill:#231f20"/><path d="M84.47,81.32V93.39H82.89V82.63h-4v3.65c0,2.62-.11,5.54-1.81,6.68a3.66,3.66,0,0,1-1.85.57L75,92.28a2.79,2.79,0,0,0,1.27-.64c1-1,1.06-3.3,1.06-5.23V81.32Z" style="fill:#231f20"/><path d="M93.43,87.73h-4.7v4.35H94v1.31H87.17V81.32H93.7v1.31h-5v3.82h4.69Z" style="fill:#231f20"/><path d="M97.55,81.32V92.09h5.54V81.32h1.58v10.8h1.06l-.11,4.14h-1.24l-.11-2.9H96v-12Z" style="fill:#231f20"/></svg>