<svg id="Layer_1" data-name="Layer 1" xmlns="http://www.w3.org/2000/svg" viewBox="0 0 91.3 91.3"><defs><style>.cls-1{fill:none;}</style></defs><title>home-icon-2</title><rect fill="#4182B9" class="cls-1" x="45.7" y="45.7" width="6.5" height="6.5"/><rect class="cls-1" x="71.7" y="65.2" width="6.6" height="6.5"/><rect class="cls-1" x="65.2" y="58.7" width="6.5" height="6.5"/><rect class="cls-1" x="45.7" y="65.2" width="6.5" height="6.5"/><rect class="cls-1" x="39.1" y="39.1" width="6.6" height="6.6"/><rect class="cls-1" x="52.2" y="78.3" width="13" height="6.5"/><path class="cls-1" d="M26.1,6.5H6.5V26.1H26.1Zm-6.6,13H13V13h6.5Z"/><rect class="cls-1" x="65.2" y="71.7" width="6.5" height="6.6"/><rect class="cls-1" x="78.3" y="52.2" width="6.5" height="13"/><rect class="cls-1" x="58.7" y="65.2" width="6.5" height="6.5"/><path class="cls-1" d="M26.1,65.2H6.5V84.8H26.1Zm-6.6,13H13V71.7h6.5Z"/><path class="cls-1" d="M84.8,6.5H65.2V26.1H84.8Zm-6.6,13H71.7V13h6.5Z"/><polygon fill="#4182B9" class="cls-1" points="58.7 58.7 65.2 58.7 65.2 52.2 52.2 52.2 52.2 65.2 58.7 65.2 58.7 58.7"/><path fill="#4182B9" d="M58.7,32.6H91.3V0H58.7ZM65.2,6.5H84.8V26.1H65.2Z"/><rect fill="#4182B9" x="13" y="13" width="6.5" height="6.5"/><rect fill="#4182B9" x="71.7" y="13" width="6.5" height="6.5"/><polygon fill="#4182B9" points="52.2 13 45.7 13 45.7 6.5 52.2 6.5 52.2 0 39.1 0 39.1 19.6 45.7 19.6 45.7 26.1 52.2 26.1 52.2 13"/><path fill="#4182B9"  d="M32.6,32.6V0H0V32.6H32.6ZM6.5,6.5H26.1V26.1H6.5Z"/><polygon fill="#4182B9" points="0 39.1 0 52.2 6.5 52.2 6.5 45.7 13 45.7 13 39.1 0 39.1"/><polygon fill="#4182B9" points="45.7 45.7 52.2 45.7 52.2 32.6 45.7 32.6 45.7 26.1 39.1 26.1 39.1 39.1 45.7 39.1 45.7 45.7"/><rect fill="#4182B9" x="71.7" y="39.1" width="6.5" height="6.5"/><rect fill="#4182B9" x="84.8" y="39.1" width="6.5" height="6.5"/><polygon fill="#4182B9" points="52.2 52.2 65.2 52.2 65.2 58.7 71.7 58.7 71.7 65.2 78.3 65.2 78.3 52.2 71.7 52.2 71.7 45.7 65.2 45.7 65.2 39.1 58.7 39.1 58.7 45.7 52.2 45.7 52.2 52.2"/><rect fill="#4182B9" x="78.3" y="45.7" width="6.5" height="6.5"/><path fill="#4182B9" d="M32.6,58.7H0V91.3H32.6ZM6.5,84.8V65.2H26.1V84.8Z"/><polygon fill="#4182B9" points="52.2 65.2 52.2 52.2 45.7 52.2 45.7 45.7 39.1 45.7 39.1 39.1 19.6 39.1 19.6 45.7 13 45.7 13 52.2 26.1 52.2 26.1 45.7 32.6 45.7 32.6 52.2 39.1 52.2 39.1 58.7 45.7 58.7 45.7 65.2 52.2 65.2"/><rect fill="#4182B9" x="58.7" y="58.7" width="6.5" height="6.5"/><rect fill="#4182B9" x="84.8" y="52.2" width="6.5" height="13"/><rect fill="#4182B9" x="65.2" y="65.2" width="6.5" height="6.5"/><rect fill="#4182B9" x="78.3" y="65.2" width="6.5" height="6.5"/><rect fill="#4182B9" x="13" y="71.7" width="6.5" height="6.5"/><polygon fill="#4182B9" points="52.2 78.3 65.2 78.3 65.2 71.7 58.7 71.7 58.7 65.2 52.2 65.2 52.2 71.7 45.7 71.7 45.7 65.2 39.1 65.2 39.1 78.3 45.7 78.3 45.7 84.8 52.2 84.8 52.2 78.3"/><polygon fill="#4182B9" points="71.7 71.7 71.7 78.3 65.2 78.3 65.2 84.8 71.7 84.8 71.7 91.3 78.3 91.3 78.3 71.7 71.7 71.7"/><rect fill="#4182B9" x="84.8" y="71.7" width="6.5" height="6.5"/><rect fill="#4182B9" x="39.1" y="84.8" width="6.5" height="6.5"/><rect fill="#4182B9" x="52.2" y="84.8" width="13" height="6.5"/><rect fill="#4182B9" x="84.8" y="84.8" width="6.5" height="6.5"/></svg>