<svg id="Layer_1" data-name="Layer 1" xmlns="http://www.w3.org/2000/svg" viewBox="0 0 64 80.56"><defs><style>.cls-1{fill:none;}</style></defs><title>home-icon-4</title><path class="cls-1" d="M6,15.92V44.13c0,5.15,2.69,10.15,8.48,15.65C19,64.06,24.86,68.2,30.56,72.2l1.44,1,1.45-1c5.7-4,11.55-8.14,16.07-12.42C55.31,54.28,58,49.28,58,44.13V15.92L32,6.39ZM49.72,29,26.45,51.67,14.35,37.55l4.55-3.9,7.94,9.26L45.53,24.68Z"/><path fill="#4182B9" d="M0,11.72V44.13c0,6.9,3.28,13.25,10.33,20,4.82,4.58,10.9,8.85,16.78,13l3.16,2.22L32,80.56l1.73-1.23,3.16-2.23c5.88-4.13,12-8.4,16.77-13C60.72,57.38,64,51,64,44.13V11.72L32,0ZM58,44.13c0,5.15-2.69,10.15-8.48,15.65C45,64.06,39.15,68.19,33.45,72.2L32,73.2l-1.44-1c-5.7-4-11.59-8.14-16.08-12.42C8.69,54.28,6,49.28,6,44.13V15.92L32,6.39l26,9.53Z"/><polygon fill="#4182B9" points="18.9 33.65 14.35 37.55 26.45 51.67 49.72 28.98 45.53 24.68 26.84 42.91 18.9 33.65"/></svg>