<svg id="Layer_1" data-name="Layer 1" xmlns="http://www.w3.org/2000/svg" xmlns:xlink="http://www.w3.org/1999/xlink" viewBox="0 0 80 98"><defs><style>.cls-1{fill:none;}.cls-2{clip-path:url(#clip-path); fill:#4182B9;}</style><clipPath id="clip-path" transform="translate(5 4.64)"><path class="cls-1" d="M35.22,45.36a51.12,51.12,0,0,0,4,5.63C42,54.49,44,57.06,44,60.46a9.61,9.61,0,0,1-2,5.59,7.91,7.91,0,0,1-7,3.31,8,8,0,0,1-7-3.31,10.72,10.72,0,0,1-2-5.59c0-3.17,2.12-5.78,5.09-9.35a42.31,42.31,0,0,0,4.13-5.75Zm-.41-12A3.12,3.12,0,0,0,32,36.21c-.22,4.47-2.62,7.56-5.53,11.06S20,54.71,20,60.46a15.5,15.5,0,0,0,3.25,9.21A14.54,14.54,0,0,0,35,75.36a14.49,14.49,0,0,0,11.81-5.69A15.59,15.59,0,0,0,50,60.46c.08-5.07-3.31-9.71-6.09-13.22S38.64,40.56,38,35.93a3.11,3.11,0,0,0-3.19-2.57Zm-23.4-19,2.81,6.78-3.53,1.57L7.88,15.89ZM64,8.74V82.36H6V31.3l17.91-7.94H39.56a3,3,0,0,0,1.6-.47ZM32,6.36H56.44l-17.75,11H27.47Zm34.63-6H29.69a3.06,3.06,0,0,0-2.47,1.85L20.59,18.27l-.9.4L15.75,9.21a3.08,3.08,0,0,0-3.13-1.85C9.33,8.5,6,10.17,2.78,11.61a3.13,3.13,0,0,0-1.56,3.91l4,9.56L1.78,26.61A3.09,3.09,0,0,0,0,29.36v56a3.12,3.12,0,0,0,3,3H67a3.12,3.12,0,0,0,3-3v-82C70,1.37,68.54.35,66.63.36Z"/></clipPath></defs><title>home-icon-5</title><g class="cls-2"><rect width="80" height="98"/></g></svg>